<?xml version="1.0" encoding="UTF-8"?>
<!DOCTYPE svg PUBLIC "-//W3C//DTD SVG 1.1//EN" "http://www.w3.org/Graphics/SVG/1.1/DTD/svg11.dtd">
<svg version="1.2" xmlns="http://www.w3.org/2000/svg" xmlns:xlink="http://www.w3.org/1999/xlink" x="0" y="0" width="593" height="361" viewBox="0 0 593 361">
<style type="text/css"><![CDATA[
text { font:12px Dialog; }
]]></style>
<rect x="-1047" y="-1267" width="3126" height="2662" style="fill:rgb(255,255,255);stroke:none" />
<clipPath id="clip1"><path d="M15,157 L578,157 L578,346 L15,346 Z M26,263 C21.5817184,263 18,266.5817261 18,271 L18,323 C18,327.4182739 21.5817184,331 26,331 L127,331 C131.4182739,331 135,327.4182739 135,323 L135,271 C135,266.5817261 131.4182739,263 127,263 Z" /></clipPath>
<path d="M95.629425,263 C105.2673264,211.6097107 119.7241821,185.914566 139,185.9145813" style="fill:none;stroke:rgb(85,142,213)" clip-path="url(#clip1)" />
<clipPath id="clip2"><path d="M15,157 L578,157 L578,346 L15,346 Z M26,263 C21.5817184,263 18,266.5817261 18,271 L18,323 C18,327.4182739 21.5817184,331 26,331 L127,331 C131.4182739,331 135,327.4182739 135,323 L135,271 C135,266.5817261 131.4182739,263 127,263 Z" /></clipPath>
<path d="M135,301.6322327 C149.222229,305.0107422 170.5555573,306.7000122 199,306.7000122" style="fill:none;stroke:rgb(85,142,213)" clip-path="url(#clip2)" />
<clipPath id="clip3"><path d="M14,259 L140,259 L140,336 L14,336 L14,259 Z" /></clipPath>
<path d="M26,263 C21.5817184,263 18,266.5817261 18,271 L18,323 C18,327.4182739 21.5817184,331 26,331 L127,331 C131.4182739,331 135,327.4182739 135,323 L135,271 C135,266.5817261 131.4182739,263 127,263 Z" style="fill:rgb(220,230,242);stroke:none" clip-path="url(#clip3)" />
<clipPath id="clip4"><path d="M14,259 L140,259 L140,336 L14,336 L14,259 Z" /></clipPath>
<path d="M26,263 C21.5817184,263 18,266.5817261 18,271 L18,323 C18,327.4182739 21.5817184,331 26,331 L127,331 C131.4182739,331 135,327.4182739 135,323 L135,271 C135,266.5817261 131.4182739,263 127,263 Z" style="fill:none;stroke:rgb(85,142,213);stroke-width:5" clip-path="url(#clip4)" />
<clipPath id="clip5"><path d="M50,279 L104,279 L104,316 L50,316 L50,279 Z" /></clipPath>
<path d="M53.6152382,295.3671875 L56.6386757,295.3671875 L56.6386757,292.5546875 L53.9902382,292.5546875 L53.9902382,289.6484375 L56.6386757,289.6484375 L56.6386757,285.921875 L59.6386757,285.921875 L59.6386757,289.6484375 L62.2871132,289.6484375 L62.2871132,292.5546875 L59.6386757,292.5546875 L59.6386757,295.3671875 L62.6152382,295.3671875 L62.6152382,298.296875 L59.5683632,298.296875 C59.5449257,298.71875 59.5097694,299.1289063 59.4628944,299.5273438 C60.5722656,300.5507813 61.8261757,301.7890625 63.2246132,303.2421875 C62.3652382,304.0546875 61.6621132,304.7734375 61.1152382,305.3984375 C60.5683594,304.703125 59.8417969,303.8320313 58.9355507,302.7851563 C58.3652344,305.2382813 57.4433594,307.3203125 56.1699257,309.03125 C55.1699219,307.953125 54.3027344,307.078125 53.5683632,306.40625 C55.2480469,304.5859375 56.2363281,301.8828125 56.5332069,298.296875 L53.6152382,298.296875 Z M63.2246132,301.5078125 L63.2246132,286.7421875 L75.4589844,286.7421875 L75.4589844,301.25 L72.4121094,301.25 L72.4121094,289.765625 L66.2714844,289.765625 L66.2714844,301.5078125 Z M74.0058594,302.0703125 C75.1933594,302.6484375 76.1699219,303.0859375 76.9355469,303.3828125 C76.6308594,305.6796875 76.2871094,307.1171875 75.9042969,307.6953125 C75.5214844,308.2734375 74.8183594,308.5625 73.7949219,308.5625 L71.6855469,308.5625 C69.8886719,308.5625 68.9902344,307.71875 68.9902344,306.03125 L68.9902344,303.3242188 C67.8417969,305.6757813 65.8730469,307.5859375 63.0839882,309.0546875 C62.5371132,308.2734375 61.8261757,307.3828125 60.9511757,306.3828125 C63.9043007,304.96875 65.7753906,303.2929688 66.5644531,301.3554688 C67.3535156,299.4179688 67.7480469,296.0390625 67.7480469,291.21875 L70.8652344,291.21875 C70.8339844,294.6171875 70.6074219,297.40625 70.1855469,299.5859375 L71.7792969,299.5859375 L71.7792969,304.90625 C71.7792969,305.53125 72.0527344,305.84375 72.5996094,305.84375 L72.8574219,305.84375 C73.2324219,305.84375 73.4804688,305.6679688 73.6015625,305.3164063 C73.7226563,304.9648438 73.8574219,303.8828125 74.0058594,302.0703125 Z M92.5097733,288.3359375 L95.5097656,288.3359375 L95.5097656,303.3125 L92.5097733,303.3125 Z M97.2910156,286.0390625 L100.4316406,286.0390625 L100.4316406,305.046875 C100.4316406,307.453125 99.4863281,308.6875 97.5957031,308.75 C95.9238281,308.84375 94.6347656,308.8828125 93.7285156,308.8671875 C93.6035156,308.1796875 93.3300781,307.078125 92.9082108,305.5625 C94.2363281,305.59375 95.2363281,305.609375 95.9082031,305.609375 C96.8300781,305.609375 97.2910156,305.140625 97.2910156,304.203125 Z M79.4550858,286.765625 L90.7050858,286.765625 L90.7050858,301.6484375 L87.8457108,301.6484375 L87.8457108,289.5078125 L82.3144608,289.5078125 L82.3144608,301.6953125 L79.4550858,301.6953125 Z M86.2519608,301.015625 C88.4394531,302.84375 90.3066483,304.5234375 91.8535233,306.0546875 L89.5800858,308.1171875 C88.4082108,306.7421875 86.9941406,305.28125 85.3378983,303.734375 C84.3535233,305.8125 82.7597733,307.59375 80.5566483,309.078125 C80.0253983,308.421875 79.2910233,307.5546875 78.3535233,306.4765625 C81.8691483,304.6953125 83.6269608,301.6796875 83.6269608,297.4296875 L83.6269608,290.4921875 L86.5332108,290.4921875 L86.5332108,298.0859375 C86.5332108,299.1796875 86.4394608,300.15625 86.2519608,301.015625 Z" style="fill:rgb(55,96,146);stroke:none" clip-path="url(#clip5)" />
<clipPath id="clip6"><path d="M138,157 L392,157 L392,208 L138,208 Z M144,165 C141.2385712,165 139,167.2385712 139,170 L139,201 C139,203.7614288 141.2385712,206 144,206 L299,206 C301.7614136,206 304,203.7614288 304,201 L304,170 C304,167.2385712 301.7614136,165 299,165 Z" /></clipPath>
<path d="M316.9998169,185.9751282 C319.2221069,185.9916992 322.555481,186 327,186" style="fill:none;stroke:rgb(85,142,213)" clip-path="url(#clip6)" />
<clipPath id="clip7"><path d="M137,156 L393,156 L393,209 L137,209 L137,156 Z" /></clipPath>
<path d="M304,185.9104462 L316.9998169,185.9751282" style="fill:none;stroke:rgb(85,142,213)" clip-path="url(#clip7)" />
<clipPath id="clip8"><path d="M137,163 L307,163 L307,209 L137,209 L137,163 Z" /></clipPath>
<path d="M144,165 C141.2385712,165 139,167.2385712 139,170 L139,201 C139,203.7614288 141.2385712,206 144,206 L299,206 C301.7614136,206 304,203.7614288 304,201 L304,170 C304,167.2385712 301.7614136,165 299,165 Z" style="fill:rgb(220,230,242);stroke:none" clip-path="url(#clip8)" />
<clipPath id="clip9"><path d="M137,163 L307,163 L307,209 L137,209 L137,163 Z" /></clipPath>
<path d="M144,165 C141.2385712,165 139,167.2385712 139,170 L139,201 C139,203.7614288 141.2385712,206 144,206 L299,206 C301.7614136,206 304,203.7614288 304,201 L304,170 C304,167.2385712 301.7614136,165 299,165 Z" style="fill:none;stroke:rgb(85,142,213);stroke-width:2" clip-path="url(#clip9)" />
<clipPath id="clip10"><path d="M151,172 L293,172 L293,200 L151,200 L151,172 Z" /></clipPath>
<path d="M162.2697906,186.1328125 L171.2014313,186.1328125 L171.2014313,194.0351563 L169.9397125,194.0351563 L169.9397125,193.1552734 L163.5315094,193.1552734 L163.5315094,194.0351563 L162.2697906,194.0351563 Z M160.9914703,183.6259766 L163.7971344,183.6259766 L163.7971344,181.2685547 L161.6555328,181.2685547 L161.6555328,180.1396484 L163.7971344,180.1396484 L163.7971344,177.8486328 L165.0588531,177.8486328 L165.0588531,180.1396484 L168.3625641,180.1396484 L168.3625641,177.8486328 L169.6242828,177.8486328 L169.6242828,180.1396484 L172.1477203,180.1396484 L172.1477203,181.2685547 L169.6242828,181.2685547 L169.6242828,183.6259766 L172.7453766,183.6259766 L172.7453766,184.7548828 L160.9914703,184.7548828 Z M156.3928375,185.3691406 C158.0861816,182.9121094 159.3313141,180.3831329 160.1281891,177.7822266 L161.423111,178.2304688 C160.9195251,179.6139221 160.3882751,180.8922424 159.829361,182.0654297 L159.829361,194.0351563 L158.5676422,194.0351563 L158.5676422,184.4394531 C158.0419312,185.3248596 157.4940796,186.1328125 156.9240875,186.8632813 C156.7359314,186.265625 156.5588531,185.7675781 156.3928375,185.3691406 Z M169.9397125,187.2617188 L163.5315094,187.2617188 L163.5315094,189.1044922 L169.9397125,189.1044922 Z M163.5315094,192.0263672 L169.9397125,192.0263672 L169.9397125,190.2001953 L163.5315094,190.2001953 Z M165.0588531,183.6259766 L168.3625641,183.6259766 L168.3625641,181.2685547 L165.0588531,181.2685547 Z M187.1638336,186.1162109 L187.1638336,185.5019531 L182.7976227,185.5019531 L182.7976227,192.0097656 L187.6618805,192.0097656 L187.6618805,187.2783203 L189.0564117,187.2783203 L189.0564117,193.8691406 L187.6618805,193.8691406 L187.6618805,193.2714844 L175.1775055,193.2714844 L175.1775055,187.2783203 L176.5886383,187.2783203 L176.5886383,192.0097656 L181.3532867,192.0097656 L181.3532867,185.5019531 L175.6257477,185.5019531 L175.6257477,179.5419922 L177.0368805,179.5419922 L177.0368805,184.2402344 L181.3532867,184.2402344 L181.3532867,178.0146484 L182.7976227,178.0146484 L182.7976227,184.2402344 L187.1638336,184.2402344 L187.1638336,179.5419922 L188.5749664,179.5419922 L188.5749664,186.1162109 Z M201.001236,184.4394531 L202.6447906,184.4394531 C202.1356812,184.9375 201.6099548,185.4078674 201.0676422,185.8505859 L207.110611,185.8505859 L207.110611,187.0625 C203.546814,190.9251251 198.7932129,193.3212891 192.8498688,194.2509766 C192.65065,193.8525391 192.4016266,193.4375 192.1027985,193.0058594 C194.8033142,192.6184845 197.2216187,191.9599609 199.3576813,191.0302734 C199.0367126,190.6096954 198.5774078,190.095047 197.9797516,189.4863281 L198.9758453,188.7558594 C199.5402985,189.3424377 200.0549469,189.9234924 200.5197906,190.4990234 C202.3791656,189.5471954 203.9784546,188.3850861 205.3176422,187.0126953 L199.6233063,187.0126953 C197.6753845,188.4736328 195.6223297,189.6689453 193.4641266,190.5986328 C193.2649078,190.2776642 192.9992676,189.9013672 192.6672516,189.4697266 C195.7440796,188.2301331 198.5220642,186.5533752 201.001236,184.4394531 Z M198.4944,177.765625 L200.1711578,177.765625 C199.6067047,178.3743439 199.031189,178.9443359 198.4445953,179.4755859 L206.2639313,179.4755859 L206.2639313,180.6044922 C202.4566345,183.6702423 197.8358765,185.955719 192.4016266,187.4609375 C192.1692047,187.018219 191.9146423,186.6308594 191.6379547,186.2988281 C193.9179077,185.7011719 195.9654236,185.0205078 197.7805328,184.2568359 C197.3820953,183.8141174 196.8563843,183.2718048 196.2033844,182.6298828 L197.1330719,181.8994141 C197.7860718,182.5302734 198.3892517,183.1445313 198.9426422,183.7421875 C200.9680328,182.8235626 202.7444,181.7887268 204.2717438,180.6376953 L197.1164703,180.6376953 C195.9654236,181.6227112 194.5985718,182.5634766 193.0158844,183.4599609 C192.7723999,183.1279297 192.4680328,182.7792969 192.1027985,182.4140625 C194.6372986,181.063797 196.7678375,179.5143127 198.4944,177.765625 Z M209.0778961,184.5390625 L211.9997711,184.5390625 L211.9997711,177.765625 L213.3610992,177.765625 L213.3610992,184.5390625 L225.0818024,184.5390625 L225.0818024,185.8339844 L217.810318,185.8339844 C219.1937714,188.8665314 221.7338104,190.9527893 225.4304352,192.0927734 C225.0541229,192.5908203 224.7165527,193.0445862 224.4177399,193.4541016 C220.4388885,191.9378204 217.766037,189.3977814 216.3991852,185.8339844 L213.3610992,185.8339844 L213.3610992,191.84375 C214.6228027,191.3346252 215.9620056,190.7480469 217.3786774,190.0839844 C217.3786774,190.6041565 217.4008026,191.1022034 217.4450836,191.578125 C216.1280212,192.1204376 214.8663025,192.6904297 213.6599274,193.2880859 C213.2172089,193.5315704 212.8077087,193.8027344 212.4314117,194.1015625 L211.435318,192.8232422 C211.811615,192.5244141 211.9997711,192.1204376 211.9997711,191.6113281 L211.9997711,185.8339844 L209.0778961,185.8339844 Z M214.357193,182.5136719 C217.1019745,181.595047 219.7416229,180.1949768 222.2761383,178.3134766 L223.1394196,179.3925781 C220.5495758,181.2851563 217.8379822,182.7350159 215.0046539,183.7421875 C214.8275604,183.3658752 214.6117401,182.9563751 214.357193,182.5136719 Z M227.0490875,179.3261719 L232.7766266,179.3261719 L232.7766266,192.8564453 L231.4651031,192.8564453 L231.4651031,191.4785156 L228.360611,191.4785156 L228.360611,193.0556641 L227.0490875,193.0556641 Z M233.3244781,181.4179688 L239.2180328,181.4179688 L239.2180328,177.7490234 L240.5461578,177.7490234 L240.5461578,181.4179688 L242.9035797,181.4179688 L242.9035797,182.6464844 L240.5461578,182.6464844 L240.5461578,191.578125 C240.5461578,193.0611877 239.8378143,193.8027344 238.4211578,193.8027344 C237.7792206,193.8027344 236.8384705,193.7861328 235.5988922,193.7529297 C235.5435486,193.3544922 235.4550018,192.8896484 235.3332672,192.3583984 C236.4953766,192.4469299 237.4029236,192.4912109 238.0559235,192.4912109 C238.830658,192.4912109 239.2180328,192.0982971 239.2180328,191.3125 L239.2180328,182.6464844 L233.3244781,182.6464844 Z M228.360611,190.25 L231.4651031,190.25 L231.4651031,185.9501953 L228.360611,185.9501953 Z M231.4651031,180.5546875 L228.360611,180.5546875 L228.360611,184.7548828 L231.4651031,184.7548828 Z M235.1838531,184.2402344 C236.0692596,185.8561096 236.7388611,187.1455078 237.1926422,188.1083984 C236.9048767,188.2412109 236.4621735,188.4625549 235.8645172,188.7724609 C235.4328766,187.7210236 234.8130798,186.4095001 234.0051422,184.8378906 Z M248.5896149,182.1982422 L255.6286774,182.1982422 L255.6286774,190.4160156 L249.7849274,190.4160156 L249.7849274,191.4453125 L248.5896149,191.4453125 Z M249.9841461,180.0566406 L249.9841461,178.8115234 L259.6130371,178.8115234 L259.6130371,191.9599609 C259.6130371,193.3544922 258.8217163,194.0517578 257.2390137,194.0517578 C256.5971069,194.0517578 255.7559509,194.0406799 254.7155914,194.0185547 C254.6713104,193.6865234 254.5827789,193.2382813 254.4499664,192.6738281 C255.368576,192.7402344 256.2429199,192.7734375 257.072998,192.7734375 C257.9030762,192.7734375 258.3181152,192.3694611 258.3181152,191.5615234 L258.3181152,180.0566406 Z M244.7546539,181.0361328 L246.0495758,181.0361328 L246.0495758,194.0517578 L244.7546539,194.0517578 Z M249.7849274,189.2373047 L254.4333649,189.2373047 L254.4333649,186.8798828 L249.7849274,186.8798828 Z M254.4333649,183.3769531 L249.7849274,183.3769531 L249.7849274,185.7011719 L254.4333649,185.7011719 Z M245.6179352,178.5957031 L246.5642242,177.7490234 C247.405365,178.5458984 248.1856384,179.3206329 248.9050446,180.0732422 L247.825943,181.0195313 C247.1508026,180.2226563 246.4148102,179.4147034 245.6179352,178.5957031 Z M266.3283691,179.1269531 L277.5510254,179.1269531 L277.5510254,180.3554688 L273.0187988,180.3554688 C272.7753296,180.9973907 272.5097046,181.6227112 272.2219238,182.2314453 L272.2219238,184.0410156 L272.8195801,183.34375 C274.6347046,184.7272034 276.2782593,186.0498047 277.7502441,187.3115234 L276.8039551,188.4404297 C275.2876892,187.0458984 273.7603455,185.7454376 272.2219238,184.5390625 L272.2219238,191.6113281 L270.8937988,191.6113281 L270.8937988,184.4726563 C269.643158,186.2766876 268.0660095,187.8316956 266.1623535,189.1376953 C265.8967285,188.8167267 265.5923767,188.4846954 265.2492676,188.1416016 C268.3371582,186.0387268 270.4345093,183.4433594 271.5412598,180.3554688 L266.3283691,180.3554688 Z M268.2375488,192.4580078 C271.4140015,192.5244141 274.6291504,192.5022736 277.8830566,192.3916016 C277.761322,192.7568359 277.6063843,193.1940002 277.4182129,193.703125 C274.0979004,193.7363281 270.9436035,193.7141876 267.9553223,193.6367188 C266.118103,193.6145782 264.8065796,192.9726563 264.020752,191.7109375 C263.5559082,192.1647034 262.8918457,192.90625 262.0285645,193.9355469 L261.3479004,192.5576172 C262.1779785,191.7496643 262.886322,191.0745392 263.4729004,190.5322266 L263.4729004,184.9375 L261.4973145,184.9375 L261.4973145,183.7089844 L264.7512207,183.7089844 L264.7512207,190.78125 C265.4484863,191.8658752 266.6105957,192.4248047 268.2375488,192.4580078 Z M263.4230957,178.1308594 C264.1978455,179.1158752 264.9725952,180.1617737 265.7473145,181.2685547 L264.5686035,182.0986328 C263.8160095,180.9033203 263.0800171,179.8186798 262.3605957,178.8447266 Z M283.2287598,188.2495117 L281.7844238,188.2495117 L281.7844238,187.5356445 C281.7844238,186.9545898 281.9006348,186.4551544 282.1330566,186.0373535 C282.3654785,185.6195374 282.7805176,185.1782227 283.3781738,184.7133789 C283.9647827,184.2595978 284.3839722,183.8348694 284.6357422,183.439209 C284.8875427,183.0435333 285.0134277,182.5883789 285.0134277,182.0737305 C285.0134277,181.5258789 284.8183594,181.0748596 284.4282227,180.7207031 C284.0380859,180.3665314 283.5082397,180.1894531 282.838623,180.1894531 C281.7816772,180.1894531 280.8519897,180.5906525 280.0495605,181.3930664 L280.0495605,179.699707 C280.979248,179.1186523 281.9864197,178.828125 283.0710449,178.828125 C284.1501465,178.828125 285.0092773,179.1117249 285.6484375,179.6789551 C286.2875977,180.24617 286.6071777,180.98909 286.6071777,181.9077148 C286.6071777,182.5496368 286.4577637,183.1334534 286.1589355,183.6591797 C285.8601074,184.1848907 285.359314,184.7382813 284.6564941,185.3193359 C284.092041,185.7897034 283.7129822,186.1632385 283.5192871,186.4399414 C283.3256226,186.716629 283.2287598,187.1040039 283.2287598,187.6020508 Z M282.498291,189.984375 C282.7915955,189.984375 283.043396,190.0867462 283.2536621,190.2915039 C283.4639587,190.4962463 283.5690918,190.7452698 283.5690918,191.0385742 C283.5690918,191.3374023 283.4639587,191.5877991 283.2536621,191.7897949 C283.043396,191.9917755 282.7915955,192.0927734 282.498291,192.0927734 C282.2160645,192.0927734 281.9698181,191.9931641 281.7595215,191.7939453 C281.5492554,191.5947266 281.4440918,191.342926 281.4440918,191.0385742 C281.4440918,190.7397461 281.5478516,190.4893341 281.7553711,190.2873535 C281.9628906,190.0853577 282.2105408,189.984375 282.498291,189.984375 Z" style="fill:rgb(23,55,94);stroke:none" clip-path="url(#clip10)" />
<clipPath id="clip11"><path d="M305,180 L318,180 L318,193 L305,193 L305,180 Z" /></clipPath>
<path d="M315.5,186 C315.5,183.5147095 313.4852905,181.5 311,181.5 C308.5147095,181.5 306.5,183.5147095 306.5,186 C306.5,188.4852905 308.5147095,190.5 311,190.5 C313.4852905,190.5 315.5,188.48526 315.5,186 Z" style="fill:rgb(250,250,250);stroke:none" clip-path="url(#clip11)" />
<clipPath id="clip12"><path d="M305,180 L318,180 L318,193 L305,193 L305,180 Z" /></clipPath>
<path d="M315.5,186 C315.5,183.5147095 313.4852905,181.5 311,181.5 C308.5147095,181.5 306.5,183.5147095 306.5,186 C306.5,188.4852905 308.5147095,190.5 311,190.5 C313.4852905,190.5 315.5,188.48526 315.5,186 Z" style="fill:none;stroke:rgb(85,142,213)" clip-path="url(#clip12)" />
<clipPath id="clip13"><path d="M305,180 L318,180 L318,193 L305,193 L305,180 Z" /></clipPath>
<path d="M309,186 L313,186" style="fill:none;stroke:rgb(150,160,200)" clip-path="url(#clip13)" />
<clipPath id="clip14"><path d="M324,156 L393,156 L393,189 L324,189 L324,156 Z" /></clipPath>
<path d="M327,186 L389,186 Z" style="fill:none;stroke:rgb(85,142,213);stroke-width:3" clip-path="url(#clip14)" />
<clipPath id="clip15"><path d="M336,161 L381,161 L381,184 L336,184 L336,161 Z" /></clipPath>
<path d="M339.2680664,171.3574219 L351.887207,171.3574219 L351.887207,172.4746094 L339.2680664,172.4746094 Z M358.3681641,170.6972656 L359.5234375,170.6972656 L359.5234375,178.5556641 L358.3681641,178.5556641 Z M359.7646484,166.3300781 L359.5742188,166.6220703 C360.9453125,168.8818359 362.8496094,170.4983673 365.2871094,171.4716797 C365.0247192,171.8863831 364.8004456,172.2672424 364.6142578,172.6142578 C362.1259766,171.3108673 360.2428284,169.6308594 358.9648438,167.5742188 C357.7122192,169.5292969 355.8121643,171.2685547 353.2646484,172.7919922 C353.0784302,172.4873047 352.8626099,172.1529846 352.6171875,171.7890625 C355.257782,170.3248596 357.221344,168.5052032 358.5078125,166.3300781 Z M369.0957031,174.2392578 C368.9052429,175.8727112 368.2683716,177.3496094 367.1850586,178.6699219 C366.9142151,178.407547 366.6222229,178.1536407 366.309082,177.9082031 C367.1300354,177.0195313 367.6801758,175.9615784 367.9594727,174.734375 C368.1541138,173.8287659 368.2514648,172.5761719 368.2514648,170.9765625 L368.2514648,166.5839844 L376.7319336,166.5839844 L376.7319336,176.4863281 C376.7319031,177.7389221 376.1352234,178.3652344 374.9418945,178.3652344 C374.4425354,178.3652344 373.7993164,178.3567657 373.012207,178.3398438 C372.9698792,178.0351563 372.9064026,177.6796875 372.8217773,177.2734375 C373.6004028,177.3242188 374.2140198,177.3496094 374.6625977,177.3496094 C375.3481445,177.3496094 375.690918,177.0152893 375.690918,176.3466797 L375.690918,174.2392578 Z M369.1972656,173.3125 L375.690918,173.3125 L375.690918,170.875 L369.2924805,170.875 C369.2924805,171.721344 369.2607422,172.533844 369.1972656,173.3125 Z M369.2924805,167.5361328 L369.2924805,169.9482422 L375.690918,169.9482422 L375.690918,167.5361328 Z" style="fill:rgb(0,0,0);stroke:none" clip-path="url(#clip15)" />
<clipPath id="clip16"><path d="M198,246 L578,246 L578,341 L198,341 Z M204,286 C201.2385712,286 199,288.2385864 199,291 L199,322 C199,324.7614136 201.2385712,327 204,327 L274,327 C276.7614136,327 279,324.7614136 279,322 L279,291 C279,288.2385864 276.7614136,286 274,286 Z" /></clipPath>
<path d="M291.9998169,306.7650146 C294.2221069,285.5883179 297.555481,275 302,275" style="fill:none;stroke:rgb(85,142,213)" clip-path="url(#clip16)" />
<clipPath id="clip17"><path d="M198,246 L578,246 L578,341 L198,341 Z M204,286 C201.2385712,286 199,288.2385864 199,291 L199,322 C199,324.7614136 201.2385712,327 204,327 L274,327 C276.7614136,327 279,324.7614136 279,322 L279,291 C279,288.2385864 276.7614136,286 274,286 Z" /></clipPath>
<path d="M291.9998169,306.7650146 C294.2221069,306.9216614 297.555481,307 302,307" style="fill:none;stroke:rgb(85,142,213)" clip-path="url(#clip17)" />
<clipPath id="clip18"><path d="M198,246 L578,246 L578,341 L198,341 Z M204,286 C201.2385712,286 199,288.2385864 199,291 L199,322 C199,324.7614136 201.2385712,327 204,327 L274,327 C276.7614136,327 279,324.7614136 279,322 L279,291 C279,288.2385864 276.7614136,286 274,286 Z" /></clipPath>
<path d="M291.9998169,306.7650146 C294.2221069,328.2550049 297.555481,339 302,339" style="fill:none;stroke:rgb(85,142,213)" clip-path="url(#clip18)" />
<clipPath id="clip19"><path d="M197,245 L579,245 L579,342 L197,342 L197,245 Z" /></clipPath>
<path d="M279,306.7000122 L291.9998169,306.7650146" style="fill:none;stroke:rgb(85,142,213)" clip-path="url(#clip19)" />
<clipPath id="clip20"><path d="M197,284 L282,284 L282,330 L197,330 L197,284 Z" /></clipPath>
<path d="M204,286 C201.2385712,286 199,288.2385864 199,291 L199,322 C199,324.7614136 201.2385712,327 204,327 L274,327 C276.7614136,327 279,324.7614136 279,322 L279,291 C279,288.2385864 276.7614136,286 274,286 Z" style="fill:rgb(220,230,242);stroke:none" clip-path="url(#clip20)" />
<clipPath id="clip21"><path d="M197,284 L282,284 L282,330 L197,330 L197,284 Z" /></clipPath>
<path d="M204,286 C201.2385712,286 199,288.2385864 199,291 L199,322 C199,324.7614136 201.2385712,327 204,327 L274,327 C276.7614136,327 279,324.7614136 279,322 L279,291 C279,288.2385864 276.7614136,286 274,286 Z" style="fill:none;stroke:rgb(85,142,213);stroke-width:2" clip-path="url(#clip21)" />
<clipPath id="clip22"><path d="M211,293 L268,293 L268,321 L211,321 L211,293 Z" /></clipPath>
<path d="M223.4111328,303.3310547 L227.9599609,303.3310547 L227.9599609,301.6542969 L224.0585938,301.6542969 L224.0585938,300.5253906 L227.9599609,300.5253906 L227.9599609,298.765625 L229.2216797,298.765625 L229.2216797,300.5253906 L233.1728516,300.5253906 L233.1728516,301.6542969 L229.2216797,301.6542969 L229.2216797,303.3310547 L233.953125,303.3310547 L233.953125,304.4599609 C233.4440002,305.4339294 232.9238129,306.2916565 232.3925781,307.0332031 C231.9609222,306.8339844 231.5624847,306.6845703 231.1972656,306.5849609 C231.7285004,305.8766174 232.1933441,305.1683044 232.5917969,304.4599609 L223.4111328,304.4599609 Z M223.3447266,309.8222656 L228.3417969,309.8222656 C228.596344,308.8040466 228.7125549,307.2102966 228.6904297,305.0410156 L229.9023438,305.0410156 C229.9023438,307.1438904 229.7971954,308.7376404 229.5869141,309.8222656 L233.9697266,309.8222656 L233.9697266,310.9511719 L229.5869141,310.9511719 C231.1031799,311.9583435 232.6139221,313.0152893 234.1191406,314.1220703 L233.1894531,315.1513672 C231.8834534,314.0113831 230.4335938,312.8990784 228.8398438,311.8144531 C227.84375,313.375 226.0507813,314.5205078 223.4609375,315.2509766 C223.2727814,314.8746643 223.0403595,314.4873047 222.7636719,314.0888672 C225.4863281,313.3473206 227.2018127,312.3014221 227.9101563,310.9511719 L223.3447266,310.9511719 Z M219.6259766,308.4111328 C220.8323517,308.3004456 221.9612579,308.1676331 223.0126953,308.0126953 C222.9684143,308.4886169 222.9296875,308.8648987 222.8964844,309.1416016 C221.6015625,309.2965393 220.0299377,309.5068359 218.1816406,309.7724609 L217.9160156,308.5605469 C218.6022034,307.9739685 219.4433594,306.8339844 220.4394531,305.140625 C219.4212189,305.2070313 218.5966797,305.2679138 217.9658203,305.3232422 L217.6337891,304.2275391 C218.4749298,303.0765076 219.3990784,301.2779846 220.40625,298.8320313 L221.6679688,299.296875 C220.671875,301.2447815 219.7864532,302.8551331 219.0117188,304.1279297 C219.5982971,304.1279297 220.2678986,304.1168518 221.0205078,304.0947266 C221.4078674,303.3863831 221.8173828,302.6005859 222.2490234,301.7373047 L223.4111328,302.2851563 C222.0055237,304.7753906 220.7438049,306.8173828 219.6259766,308.4111328 Z M217.75,312.3955078 C219.4876251,312.1077576 221.2750549,311.7757263 223.1123047,311.3994141 C223.0680237,311.9970703 223.0458984,312.4065857 223.0458984,312.6279297 C221.4300079,312.9488831 219.7864532,313.2919922 218.1152344,313.6572266 Z M223.6103516,307.6640625 L224.2744141,306.8837891 C225.3590393,307.5589294 226.1946564,308.1510315 226.78125,308.6601563 L226.0175781,309.5732422 C225.519516,309.0973206 224.7171173,308.4609375 223.6103516,307.6640625 Z M224.7724609,305.8212891 L225.453125,305.0244141 C226.3385315,305.5224609 227.1630859,306.0813904 227.9267578,306.7011719 L227.1796875,307.5976563 C226.471344,307.0221252 225.6689301,306.4300232 224.7724609,305.8212891 Z M241.0668945,307.0996094 L249.9985352,307.0996094 L249.9985352,315.0019531 L248.7368164,315.0019531 L248.7368164,314.1220703 L242.3286133,314.1220703 L242.3286133,315.0019531 L241.0668945,315.0019531 Z M239.7885742,304.5927734 L242.5942383,304.5927734 L242.5942383,302.2353516 L240.4526367,302.2353516 L240.4526367,301.1064453 L242.5942383,301.1064453 L242.5942383,298.8154297 L243.855957,298.8154297 L243.855957,301.1064453 L247.159668,301.1064453 L247.159668,298.8154297 L248.4213867,298.8154297 L248.4213867,301.1064453 L250.9448242,301.1064453 L250.9448242,302.2353516 L248.4213867,302.2353516 L248.4213867,304.5927734 L251.5424805,304.5927734 L251.5424805,305.7216797 L239.7885742,305.7216797 Z M235.1899414,306.3359375 C236.8832855,303.8789063 238.128418,301.3499451 238.925293,298.7490234 L240.2202148,299.1972656 C239.716629,300.580719 239.185379,301.8590393 238.6264648,303.0322266 L238.6264648,315.0019531 L237.3647461,315.0019531 L237.3647461,305.40625 C236.8390198,306.2916565 236.2911682,307.0996094 235.7211914,307.8300781 C235.5330353,307.2324219 235.355957,306.734375 235.1899414,306.3359375 Z M248.7368164,308.2285156 L242.3286133,308.2285156 L242.3286133,310.0712891 L248.7368164,310.0712891 Z M242.3286133,312.9931641 L248.7368164,312.9931641 L248.7368164,311.1669922 L242.3286133,311.1669922 Z M243.855957,304.5927734 L247.159668,304.5927734 L247.159668,302.2353516 L243.855957,302.2353516 Z M256.987793,309.2163086 L255.543457,309.2163086 L255.543457,308.5024414 C255.543457,307.9213867 255.659668,307.4219666 255.8920898,307.0041504 C256.1245117,306.5863342 256.5395508,306.1450195 257.137207,305.6801758 C257.7237854,305.2264099 258.1429749,304.8016663 258.3947754,304.4060059 C258.6465454,304.0103455 258.7724609,303.5551758 258.7724609,303.0405273 C258.7724609,302.4926758 258.5773926,302.0416565 258.1872559,301.6875 C257.7971191,301.3333435 257.2672424,301.15625 256.5976563,301.15625 C255.5406799,301.15625 254.6109924,301.5574646 253.8085938,302.3598633 L253.8085938,300.6665039 C254.7382813,300.0854492 255.7454376,299.7949219 256.8300781,299.7949219 C257.9091797,299.7949219 258.7683105,300.0785217 259.4074707,300.645752 C260.0466309,301.2129822 260.3662109,301.9559021 260.3662109,302.8745117 C260.3662109,303.516449 260.2167969,304.1002502 259.9179688,304.6259766 C259.6191406,305.1517029 259.1183167,305.7050781 258.4155273,306.2861328 C257.8510742,306.7565002 257.4719849,307.1300354 257.2783203,307.4067383 C257.0846252,307.6834412 256.987793,308.0708008 256.987793,308.5688477 Z M256.2573242,310.9511719 C256.5505981,310.9511719 256.8023987,311.0535583 257.0126953,311.2583008 C257.2229614,311.4630432 257.328125,311.7120667 257.328125,312.0053711 C257.328125,312.3041992 257.2229614,312.5545959 257.0126953,312.7565918 C256.8023987,312.9585876 256.5505981,313.0595703 256.2573242,313.0595703 C255.9750977,313.0595703 255.7288361,312.9599609 255.5185547,312.7607422 C255.3082581,312.5615234 255.203125,312.3097229 255.203125,312.0053711 C255.203125,311.706543 255.3068848,311.4561462 255.5144043,311.2541504 C255.7219086,311.0521545 255.9695587,310.9511719 256.2573242,310.9511719 Z" style="fill:rgb(23,55,94);stroke:none" clip-path="url(#clip22)" />
<clipPath id="clip23"><path d="M280,301 L293,301 L293,314 L280,314 L280,301 Z" /></clipPath>
<path d="M290.5,307 C290.5,304.5147095 288.4852905,302.5 286,302.5 C283.5147095,302.5 281.5,304.5147095 281.5,307 C281.5,309.4852905 283.5147095,311.5 286,311.5 C288.4852905,311.5 290.5,309.48526 290.5,307 Z" style="fill:rgb(250,250,250);stroke:none" clip-path="url(#clip23)" />
<clipPath id="clip24"><path d="M280,301 L293,301 L293,314 L280,314 L280,301 Z" /></clipPath>
<path d="M290.5,307 C290.5,304.5147095 288.4852905,302.5 286,302.5 C283.5147095,302.5 281.5,304.5147095 281.5,307 C281.5,309.4852905 283.5147095,311.5 286,311.5 C288.4852905,311.5 290.5,309.48526 290.5,307 Z" style="fill:none;stroke:rgb(85,142,213)" clip-path="url(#clip24)" />
<clipPath id="clip25"><path d="M280,301 L293,301 L293,314 L280,314 L280,301 Z" /></clipPath>
<path d="M284,307 L288,307" style="fill:none;stroke:rgb(150,160,200)" clip-path="url(#clip25)" />
<clipPath id="clip26"><path d="M300,246 L578,246 L578,277 L300,277 Z M302,248 L302,274 L507,274 L507,248 Z" /></clipPath>
<path d="M520,275 C522.444458,275 526.111084,275 531,275" style="fill:none;stroke:rgb(85,142,213)" clip-path="url(#clip26)" />
<clipPath id="clip27"><path d="M299,245 L579,245 L579,278 L299,278 L299,245 Z" /></clipPath>
<path d="M507,275 L520,275" style="fill:none;stroke:rgb(85,142,213)" clip-path="url(#clip27)" />
<clipPath id="clip28"><path d="M299,245 L511,245 L511,278 L299,278 L299,245 Z" /></clipPath>
<path d="M302,275 L507,275 Z" style="fill:none;stroke:rgb(85,142,213);stroke-width:3" clip-path="url(#clip28)" />
<clipPath id="clip29"><path d="M311,250 L499,250 L499,273 L311,273 L311,250 Z" /></clipPath>
<path d="M320.4411621,255.9775391 L327.017334,255.9775391 L327.017334,256.8916016 L321.4060059,256.8916016 L321.4060059,259.2783203 L326.3825684,259.2783203 L326.3825684,264.0263672 L325.4431152,264.0263672 L325.4431152,263.5439453 L321.4060059,263.5439453 L321.4060059,266.2988281 L327.1696777,266.2988281 L327.1696777,267.2128906 L320.4411621,267.2128906 Z M314.5124512,266.1083984 L315.236084,265.9941406 L315.236084,261.0048828 L316.0612793,261.0048828 L316.0612793,265.8544922 C316.4717712,265.7825623 316.8822632,265.7063904 317.2927246,265.6259766 L317.2927246,259.6972656 L316.2770996,259.6972656 L316.2770996,260.1162109 L315.439209,260.1162109 L315.439209,255.9140625 L319.3366699,255.9140625 L319.3366699,259.6972656 L318.1433105,259.6972656 L318.1433105,261.9316406 L319.6286621,261.9316406 L319.6286621,262.7314453 L318.1433105,262.7314453 L318.1433105,265.4609375 C318.6638184,265.3551331 319.1885681,265.2451172 319.7175293,265.1308594 C319.7260132,265.4947815 319.7429199,265.8037109 319.7683105,266.0576172 C317.8217163,266.4130859 316.1713257,266.7558594 314.8171387,267.0859375 Z M325.4431152,260.1669922 L321.4060059,260.1669922 L321.4060059,262.6552734 L325.4431152,262.6552734 Z M318.486084,258.9609375 L318.486084,256.6503906 L316.2770996,256.6503906 L316.2770996,258.9609375 Z M332.5969238,265.1054688 C333.5787048,265.0716248 334.5921936,265.0314026 335.6374512,264.9848633 C335.4173889,264.7394104 335.1952209,264.4960938 334.9709473,264.2548828 L335.6057129,263.7597656 C336.2658691,264.4199219 336.8879395,265.0800781 337.4719238,265.7402344 L336.7990723,266.3242188 C336.6382751,266.1337891 336.4774475,265.9433594 336.3166504,265.7529297 C335.2375488,265.8037109 334.0441895,265.8714294 332.7365723,265.9560547 C332.3641968,265.9814453 331.9664001,266.0279846 331.5432129,266.0957031 L331.1877441,265.1943359 C331.5432129,264.9742737 331.843689,264.6992188 332.0891113,264.3691406 C332.2880249,264.0940857 332.486908,263.7851563 332.685791,263.4423828 L329.9055176,263.4423828 L329.9055176,267.7080078 L328.9533691,267.7080078 L328.9533691,262.6044922 L333.1428223,262.6044922 C333.3247986,262.2532654 333.5046387,261.872406 333.682373,261.4619141 L329.435791,261.4619141 L329.435791,257.7802734 L330.3625488,257.7802734 L330.3625488,260.6494141 L338.1447754,260.6494141 L338.1447754,257.7675781 L339.0715332,257.7675781 L339.0715332,261.9189453 L338.1447754,261.9189453 L338.1447754,261.4619141 L334.8122559,261.4619141 C334.6091309,261.8554688 334.4039001,262.2363281 334.1965332,262.6044922 L339.5412598,262.6044922 L339.5412598,266.2861328 C339.5412598,267.1917419 339.1180725,267.6445313 338.2717285,267.6445313 C337.8654785,267.6445313 337.4211426,267.6360779 336.9387207,267.6191406 C336.9048767,267.3229065 336.8456116,266.9970703 336.7609863,266.6416016 C337.2603455,266.6923828 337.6877441,266.7177734 338.0432129,266.7177734 C338.407135,266.7177734 338.5891113,266.5273438 338.5891113,266.1464844 L338.5891113,263.4423828 L333.7077637,263.4423828 C333.3438416,264.0390625 332.9735718,264.5934143 332.5969238,265.1054688 Z M328.1662598,256.421875 L333.6887207,256.421875 C333.5109863,256.1044922 333.3417053,255.8209534 333.1809082,255.5712891 L334.1584473,255.1269531 C334.3742676,255.440094 334.6387634,255.8717346 334.9519043,256.421875 L340.3537598,256.421875 L340.3537598,257.2851563 L328.1662598,257.2851563 Z M331.0354004,258.1484375 L331.3781738,257.4755859 C332.3515015,257.7887268 333.3755798,258.1378479 334.4504395,258.5229492 C335.3179626,258.1759338 336.1346741,257.8056641 336.9006348,257.4121094 L337.2814941,258.0595703 C336.714447,258.3558044 336.124115,258.637207 335.510498,258.9038086 C336.1410217,259.1365662 336.7906189,259.3798828 337.4592285,259.6337891 L337.1164551,260.3574219 C336.2108459,259.9850159 335.3433533,259.6422424 334.513916,259.3291016 C333.4898376,259.7395935 332.4107361,260.1162109 331.2766113,260.4589844 C331.1242676,260.1881409 330.9719238,259.9469299 330.8195801,259.7353516 C331.7167358,259.4856873 332.5736694,259.2148438 333.3903809,258.9228516 C332.5609741,258.6308594 331.7759705,258.3727112 331.0354004,258.1484375 Z M345.1081543,256.2822266 L353.6901855,256.2822266 L353.6901855,257.2216797 L350.2243652,257.2216797 C350.038147,257.7125549 349.835022,258.1907654 349.6149902,258.65625 L349.6149902,260.0400391 L350.0720215,259.5068359 C351.460022,260.5647888 352.7168579,261.5761719 353.8425293,262.5410156 L353.1188965,263.4042969 C351.9593811,262.3378906 350.7914124,261.3434143 349.6149902,260.4208984 L349.6149902,265.8291016 L348.5993652,265.8291016 L348.5993652,260.3701172 C347.6429749,261.7496643 346.4369202,262.9388123 344.9812012,263.9375 C344.7780762,263.6920471 344.5453186,263.4381409 344.282959,263.1757813 C346.6442871,261.5677185 348.2481079,259.5830078 349.0944824,257.2216797 L345.1081543,257.2216797 Z M346.5681152,266.4765625 C348.9971313,266.5273438 351.4558105,266.5104065 353.9440918,266.4257813 C353.8509827,266.7050781 353.7324829,267.0393982 353.588623,267.4287109 C351.0495605,267.4541016 348.6374512,267.4371643 346.3522949,267.3779297 C344.9473267,267.3609924 343.944397,266.8701172 343.3435059,265.9052734 C342.9880371,266.2522888 342.4802246,266.8193359 341.8200684,267.6064453 L341.2995605,266.5527344 C341.9342957,265.934906 342.4759827,265.4186096 342.9245605,265.0039063 L342.9245605,260.7255859 L341.4138184,260.7255859 L341.4138184,259.7861328 L343.9020996,259.7861328 L343.9020996,265.1943359 C344.4353027,266.0237732 345.3239746,266.4511719 346.5681152,266.4765625 Z M342.8864746,255.5205078 C343.4789124,256.2737732 344.0713501,257.0735779 344.6638184,257.9199219 L343.7624512,258.5546875 C343.1869202,257.640625 342.6240845,256.8111877 342.0739746,256.0664063 Z M354.8898926,261.1318359 L359.6633301,261.1318359 L359.6633301,258.4277344 L355.7150879,258.4277344 L355.7150879,257.4882813 L359.6633301,257.4882813 L359.6633301,255.3046875 L360.717041,255.3046875 L360.717041,257.4882813 L365.0969238,257.4882813 L364.8620605,261.1318359 L366.607666,261.1318359 C366.5907288,262.0712891 366.5610962,263.0403748 366.5187988,264.0390625 C366.4680176,265.4355469 365.8078613,266.1253357 364.5383301,266.1083984 C363.8781738,266.1168518 363.1672363,266.0872498 362.4055176,266.0195313 C362.3631897,265.6302185 362.2997131,265.2578125 362.2150879,264.9023438 C362.9937134,265.0462341 363.7258301,265.1181641 364.411377,265.1181641 C365.1138306,265.1351013 365.4819946,264.75 365.5158691,263.9628906 C365.5412598,263.361969 365.5581665,262.7314453 365.5666504,262.0712891 L360.717041,262.0712891 L360.717041,267.6826172 L359.6633301,267.6826172 L359.6633301,262.0712891 L354.8898926,262.0712891 Z M364.0178223,258.4277344 L360.717041,258.4277344 L360.717041,261.1318359 L363.8400879,261.1318359 Z M363.7004395,256.0410156 L364.3225098,255.3300781 C365.219635,255.9309845 366.0236816,256.4980469 366.7346191,257.03125 L366.0617676,257.8310547 C365.4016113,257.2724609 364.614502,256.6757813 363.7004395,256.0410156 Z M369.9020996,256.0664063 L378.9538574,256.0664063 L378.9538574,267.59375 L377.8747559,267.59375 L377.8747559,266.6923828 L370.9812012,266.6923828 L370.9812012,267.59375 L369.9020996,267.59375 Z M370.9812012,261.7666016 L370.9812012,265.765625 L377.8747559,265.765625 L377.8747559,261.7666016 Z M370.9812012,257.0185547 L370.9812012,260.8144531 L377.8747559,260.8144531 L377.8747559,257.0185547 Z M388.9641113,255.7490234 L393.458252,255.7490234 L393.458252,266.0449219 C393.4582214,267.0436096 392.9842834,267.5429688 392.036377,267.5429688 C391.5624084,267.5429688 391.0968933,267.5302734 390.6398926,267.5048828 C390.6060181,267.2255859 390.5552368,266.8997498 390.4875488,266.5273438 C391.1053772,266.5865784 391.5497131,266.6162109 391.8205566,266.6162109 C392.2860413,266.6162109 392.5187988,266.3834534 392.5187988,265.9179688 L392.5187988,263.2519531 L389.802002,263.2519531 C389.7088928,265.1054688 389.1460571,266.6458435 388.1135254,267.8730469 C387.8850098,267.6360779 387.6311035,267.3990784 387.3518066,267.1621094 C388.0373535,266.375 388.4732056,265.5582581 388.6594238,264.7119141 C388.8625488,263.8994141 388.9641113,262.4859924 388.9641113,260.4716797 Z M381.5627441,263.7216797 L382.7561035,263.7216797 L382.7561035,257.8564453 L381.7150879,257.8564453 L381.7150879,256.9931641 L382.7561035,256.9931641 L382.7561035,255.4443359 L383.6955566,255.4443359 L383.6955566,256.9931641 L386.3361816,256.9931641 L386.3361816,255.3935547 L387.2756348,255.3935547 L387.2756348,256.9931641 L388.3039551,256.9931641 L388.3039551,257.8564453 L387.2756348,257.8564453 L387.2756348,263.7216797 L388.2912598,263.7216797 L388.2912598,264.5849609 L381.5627441,264.5849609 Z M389.8591309,262.4140625 L392.5187988,262.4140625 L392.5187988,259.9257813 L389.9035645,259.9257813 C389.9120178,261.0175781 389.8972168,261.8470154 389.8591309,262.4140625 Z M392.5187988,256.6123047 L389.9035645,256.6123047 L389.9035645,259.0878906 L392.5187988,259.0878906 Z M383.6955566,263.7216797 L386.3361816,263.7216797 L386.3361816,262.2998047 L383.6955566,262.2998047 Z M383.6955566,261.4873047 L386.3361816,261.4873047 L386.3361816,260.078125 L383.6955566,260.078125 Z M383.6955566,259.265625 L386.3361816,259.265625 L386.3361816,257.8564453 L383.6955566,257.8564453 Z M383.6955566,264.8261719 L384.4699707,265.4355469 C383.6151428,266.3580627 382.8364868,267.1324768 382.1340332,267.7587891 C381.9562988,267.5556641 381.7319946,267.3313904 381.4611816,267.0859375 C382.2651978,266.4003906 383.0100098,265.6471252 383.6955566,264.8261719 Z M385.3586426,265.4228516 L385.9680176,264.8007813 C386.5604553,265.2408752 387.1190491,265.6852112 387.6437988,266.1337891 L386.9709473,266.8574219 C386.4969788,266.3834534 385.9595337,265.9052734 385.3586426,265.4228516 Z M402.2497559,260.3447266 L403.5065918,260.3447266 C403.1172485,260.7255859 402.7152405,261.0852966 402.3005371,261.4238281 L406.9216309,261.4238281 L406.9216309,262.3505859 C404.1963501,265.3043518 400.5612488,267.1367188 396.0163574,267.8476563 C395.8640137,267.5429688 395.673584,267.2255859 395.4450684,266.8955078 C397.5101624,266.5992737 399.359436,266.0957031 400.9929199,265.3847656 C400.747467,265.0631409 400.3962402,264.6695862 399.939209,264.2041016 L400.7009277,263.6455078 C401.1325684,264.0940857 401.526123,264.5384216 401.8815918,264.9785156 C403.3034668,264.2506409 404.5264282,263.361969 405.5505371,262.3125 L401.1960449,262.3125 C399.7064514,263.4296875 398.1364746,264.34375 396.486084,265.0546875 C396.3337402,264.8092346 396.1305847,264.5214844 395.876709,264.1914063 C398.2295532,263.2434998 400.3539124,261.9612732 402.2497559,260.3447266 Z M400.3327637,255.2412109 L401.6149902,255.2412109 C401.1833496,255.7066956 400.7432251,256.1425781 400.2946777,256.5488281 L406.2741699,256.5488281 L406.2741699,257.4121094 C403.3627014,259.7565002 399.8291626,261.5042419 395.673584,262.6552734 C395.4958496,262.3167419 395.301178,262.0205078 395.0895996,261.7666016 C396.8330688,261.3095703 398.3988342,260.7890625 399.7868652,260.2050781 C399.4821777,259.8665466 399.0801392,259.4518127 398.5808105,258.9609375 L399.291748,258.4023438 C399.7910767,258.8847656 400.2523499,259.3544922 400.6755371,259.8115234 C402.2243652,259.1090393 403.5827637,258.3177185 404.7507324,257.4375 L399.2790527,257.4375 C398.3988342,258.1907654 397.3535767,258.9101563 396.1433105,259.5957031 C395.9570923,259.3417969 395.7243652,259.0751953 395.4450684,258.7958984 C397.3832092,257.7633362 399.0124512,256.5784607 400.3327637,255.2412109 Z M408.4260254,260.4208984 L410.6604004,260.4208984 L410.6604004,255.2412109 L411.701416,255.2412109 L411.701416,260.4208984 L420.6643066,260.4208984 L420.6643066,261.4111328 L415.1037598,261.4111328 C416.1616821,263.7301331 418.1040649,265.325531 420.9309082,266.1972656 C420.6431274,266.578125 420.3849792,266.9251404 420.1564941,267.2382813 C417.1138306,266.0787659 415.0698853,264.1363831 414.0246582,261.4111328 L411.701416,261.4111328 L411.701416,266.0068359 C412.6662292,265.6175232 413.6903381,265.1689453 414.7736816,264.6611328 C414.7736816,265.0589294 414.7905884,265.4397888 414.8244629,265.8037109 C413.8172913,266.2184143 412.8524475,266.6542969 411.9299316,267.1113281 C411.5913696,267.2975159 411.2782288,267.5048828 410.9904785,267.7333984 L410.2287598,266.7558594 C410.51651,266.5273438 410.6604004,266.2184143 410.6604004,265.8291016 L410.6604004,261.4111328 L408.4260254,261.4111328 Z M412.4631348,258.8720703 C414.5620728,258.1695862 416.5806274,257.0989685 418.5187988,255.6601563 L419.1789551,256.4853516 C417.1984863,257.9326172 415.1249084,259.0413513 412.958252,259.8115234 C412.8228149,259.5237732 412.6577759,259.2106018 412.4631348,258.8720703 Z M422.1687012,256.4345703 L426.548584,256.4345703 L426.548584,266.78125 L425.5456543,266.78125 L425.5456543,265.7275391 L423.1716309,265.7275391 L423.1716309,266.9335938 L422.1687012,266.9335938 Z M426.9675293,258.0341797 L431.4743652,258.0341797 L431.4743652,255.2285156 L432.4899902,255.2285156 L432.4899902,258.0341797 L434.2927246,258.0341797 L434.2927246,258.9736328 L432.4899902,258.9736328 L432.4899902,265.8037109 C432.4899902,266.9378357 431.9483032,267.5048828 430.8649902,267.5048828 C430.3740845,267.5048828 429.6546936,267.4921875 428.7067871,267.4667969 C428.6644592,267.1621094 428.5967407,266.8066406 428.5036621,266.4003906 C429.392334,266.4681091 430.0863342,266.5019531 430.5856934,266.5019531 C431.1781311,266.5019531 431.4743652,266.2015076 431.4743652,265.6005859 L431.4743652,258.9736328 L426.9675293,258.9736328 Z M423.1716309,264.7880859 L425.5456543,264.7880859 L425.5456543,261.5 L423.1716309,261.5 Z M425.5456543,257.3740234 L423.1716309,257.3740234 L423.1716309,260.5859375 L425.5456543,260.5859375 Z M428.3894043,260.1923828 C429.0664673,261.4280701 429.5785217,262.4140625 429.9255371,263.1503906 C429.7054749,263.2519531 429.3669434,263.4212341 428.9099121,263.6582031 C428.579834,262.8541565 428.1058655,261.8512268 427.4880371,260.6494141 Z M438.6408691,258.6308594 L444.0236816,258.6308594 L444.0236816,264.9150391 L439.5549316,264.9150391 L439.5549316,265.7021484 L438.6408691,265.7021484 Z M439.7072754,256.9931641 L439.7072754,256.0410156 L447.0705566,256.0410156 L447.0705566,266.0957031 C447.0705566,267.1621094 446.4653931,267.6953125 445.255127,267.6953125 C444.7642212,267.6953125 444.1210022,267.6868591 443.3254395,267.6699219 C443.2915649,267.4160156 443.223877,267.0732422 443.1223145,266.6416016 C443.8247681,266.6923828 444.4934082,266.7177734 445.1281738,266.7177734 C445.7629395,266.7177734 446.0803223,266.408844 446.0803223,265.7910156 L446.0803223,256.9931641 Z M435.708252,257.7421875 L436.6984863,257.7421875 L436.6984863,267.6953125 L435.708252,267.6953125 Z M439.5549316,264.0136719 L443.1096191,264.0136719 L443.1096191,262.2109375 L439.5549316,262.2109375 Z M443.1096191,259.5322266 L439.5549316,259.5322266 L439.5549316,261.3095703 L443.1096191,261.3095703 Z M436.3684082,255.8759766 L437.092041,255.2285156 C437.73526,255.8378906 438.3319397,256.4303284 438.8820801,257.0058594 L438.0568848,257.7294922 C437.5405884,257.1201172 436.9777832,256.5022888 436.3684082,255.8759766 Z M449.8952637,259.1132813 L455.4938965,259.1132813 L455.4938965,264.1279297 L450.8981934,264.1279297 L450.8981934,265.0292969 L449.8952637,265.0292969 Z M448.486084,256.2695313 L461.0290527,256.2695313 L461.0290527,257.234375 L458.9216309,257.234375 L458.9216309,265.8291016 C458.9216309,266.9716797 458.3672485,267.5472107 457.2585449,267.5556641 C456.4629517,267.5556641 455.6885376,267.5514221 454.9353027,267.5429688 C454.8929749,267.153656 454.8252563,266.7685547 454.7321777,266.3876953 C455.6885376,266.4554138 456.4164124,266.4892578 456.9157715,266.4892578 C457.5420532,266.4892578 457.8552246,266.1507263 457.8552246,265.4736328 L457.8552246,257.234375 L448.486084,257.234375 Z M454.4909668,260.0146484 L450.8981934,260.0146484 L450.8981934,263.2265625 L454.4909668,263.2265625 Z M471.420166,255.5332031 L472.4611816,255.5332031 L472.4611816,257.8183594 C472.4611816,260.1585388 472.1607056,262.0162659 471.5598145,263.3916016 C472.6092834,264.4749451 473.5995178,265.5413513 474.5305176,266.5908203 L473.654541,267.390625 C472.7870178,266.3157654 471.9216003,265.2937927 471.0583496,264.324707 C470.0808105,265.8100586 468.61026,266.9716797 466.6467285,267.8095703 C466.4520569,267.5472107 466.2235413,267.2552185 465.9611816,266.9335938 C468.0939941,265.9518127 469.5285645,264.8134766 470.2648926,263.5185547 C471.052002,262.2490234 471.4370728,260.3404846 471.420166,257.7929688 Z M467.4846191,262.5664063 C467.5100098,263.1165466 467.5438538,263.5185547 467.5861816,263.7724609 C465.5549316,265.0504456 464.2896118,265.8544922 463.7902832,266.1845703 C463.5109863,266.3792419 463.2443848,266.5908203 462.9904785,266.8193359 L462.2668457,265.8164063 C462.6646118,265.4609375 462.8592834,265.0335388 462.8508301,264.5341797 L462.8508301,255.7109375 L463.8918457,255.7109375 L463.8918457,264.7880859 C464.8228149,264.2294922 466.0204163,263.4889221 467.4846191,262.5664063 Z M466.9641113,255.2412109 C467.5311584,256.1383362 468.1616821,257.2132263 468.8557129,258.4658203 L467.8654785,259.0244141 C467.2053223,257.7210388 466.6044006,256.6207581 466.0627441,255.7236328 Z M479.6149902,258.7578125 L483.0935059,258.7578125 L483.0935059,257.4755859 L480.1101074,257.4755859 L480.1101074,256.6123047 L483.0935059,256.6123047 L483.0935059,255.2666016 L484.0583496,255.2666016 L484.0583496,256.6123047 L487.079834,256.6123047 L487.079834,257.4755859 L484.0583496,257.4755859 L484.0583496,258.7578125 L487.6765137,258.7578125 L487.6765137,259.6210938 C487.2871704,260.3658752 486.8893738,261.0218201 486.4831543,261.5888672 C486.1530457,261.4365234 485.8483582,261.3222656 485.5690918,261.2460938 C485.9753113,260.7044373 486.33078,260.1627502 486.635498,259.6210938 L479.6149902,259.6210938 Z M479.564209,263.7216797 L483.385498,263.7216797 C483.5801392,262.9430237 483.6690063,261.7242737 483.6520996,260.0654297 L484.5788574,260.0654297 C484.5788574,261.6734924 484.4984436,262.8922424 484.3376465,263.7216797 L487.689209,263.7216797 L487.689209,264.5849609 L484.3376465,264.5849609 C485.4971313,265.3551331 486.6524048,266.1634216 487.8034668,267.0097656 L487.0925293,267.796875 C486.093811,266.9251404 484.9851074,266.0745544 483.7663574,265.2451172 C483.0046387,266.4384766 481.6335449,267.3144531 479.6530762,267.8730469 C479.5091858,267.5852966 479.3314514,267.2890625 479.119873,266.984375 C481.2019043,266.4173279 482.5137329,265.6175232 483.0554199,264.5849609 L479.564209,264.5849609 Z M476.720459,262.6425781 C477.6429749,262.5579529 478.5062561,262.4563904 479.3103027,262.3378906 C479.2764282,262.7018127 479.2468262,262.9895935 479.2214355,263.2011719 C478.2312012,263.3196716 477.0293579,263.4804688 475.6159668,263.6835938 L475.4128418,262.7568359 C475.937561,262.3082581 476.5808105,261.4365234 477.3425293,260.1416016 C476.5638733,260.1923828 475.9333496,260.2389221 475.4509277,260.28125 L475.1970215,259.4433594 C475.8402405,258.5631409 476.546936,257.1878357 477.3171387,255.3173828 L478.2819824,255.6728516 C477.5202637,257.1624451 476.8431702,258.3938904 476.2507324,259.3671875 C476.6992798,259.3671875 477.2113342,259.3587341 477.7868652,259.3417969 C478.0830688,258.8001404 478.3962402,258.1992188 478.7263184,257.5390625 L479.6149902,257.9580078 C478.5401001,259.8623047 477.5752563,261.4238281 476.720459,262.6425781 Z M475.2858887,265.6894531 C476.6146545,265.4693909 477.9815063,265.2154846 479.3864746,264.9277344 C479.3526001,265.3847656 479.3356934,265.6979065 479.3356934,265.8671875 C478.1000061,266.1126404 476.8431702,266.375 475.5651855,266.6542969 Z M479.767334,262.0712891 L480.2751465,261.4746094 C481.1045532,261.9908752 481.7435608,262.4436951 482.1921387,262.8330078 L481.6081543,263.53125 C481.2272644,263.1673279 480.613678,262.6806641 479.767334,262.0712891 Z M480.6560059,260.6621094 L481.1765137,260.0527344 C481.8535767,260.4335938 482.4841309,260.8609924 483.0681152,261.3349609 L482.4968262,262.0205078 C481.9551392,261.5804138 481.3415222,261.127594 480.6560059,260.6621094 Z M491.9040527,263.2583008 L490.7995605,263.2583008 L490.7995605,262.7124023 C490.7995605,262.2680664 490.8884277,261.8861389 491.0661621,261.5666504 C491.2438965,261.2471619 491.5612793,260.909668 492.0183105,260.5541992 C492.4668579,260.2071838 492.7874146,259.8824158 492.9799805,259.579834 C493.1725159,259.2772522 493.2687988,258.9291992 493.2687988,258.5356445 C493.2687988,258.1166992 493.1196289,257.7718201 492.8212891,257.5009766 C492.5229492,257.2301331 492.1177368,257.0947266 491.6057129,257.0947266 C490.7974243,257.0947266 490.0864868,257.4015198 489.4729004,258.0151367 L489.4729004,256.7202148 C490.1838379,256.2758789 490.95401,256.0537109 491.7834473,256.0537109 C492.6086426,256.0537109 493.265625,256.2705994 493.7543945,256.7043457 C494.2431641,257.138092 494.4875488,257.7062073 494.4875488,258.4086914 C494.4875488,258.8995667 494.373291,259.3460388 494.1447754,259.7480469 C493.9162598,260.1500549 493.5332642,260.5732422 492.9958496,261.0175781 C492.564209,261.3772888 492.2743225,261.6629333 492.1262207,261.8745117 C491.9780884,262.0860901 491.9040527,262.3823242 491.9040527,262.7631836 Z M491.345459,264.5849609 C491.5697327,264.5849609 491.7622681,264.6632385 491.9230957,264.8198242 C492.0838928,264.9764099 492.1643066,265.1668396 492.1643066,265.3911133 C492.1643066,265.6196289 492.0838928,265.8111267 491.9230957,265.9655762 C491.7622681,266.1200256 491.5697327,266.1972656 491.345459,266.1972656 C491.1296387,266.1972656 490.9413147,266.1210938 490.7805176,265.96875 C490.6196899,265.8164063 490.5393066,265.6238708 490.5393066,265.3911133 C490.5393066,265.1625977 490.6186523,264.9710999 490.7773438,264.8166504 C490.9360046,264.6622009 491.1253967,264.5849609 491.345459,264.5849609 Z" style="fill:rgb(0,0,0);stroke:none" clip-path="url(#clip29)" />
<clipPath id="clip30"><path d="M509,255 L522,255 L522,268 L509,268 L509,255 Z" /></clipPath>
<path d="M519.5,261 C519.5,258.5147095 517.4852295,256.5 515,256.5 C512.5147095,256.5 510.4999695,258.5147095 510.5,261 C510.5,263.4852905 512.5147095,265.5 515,265.5 C517.4852295,265.5 519.5,263.48526 519.5,261 Z" style="fill:rgb(250,250,250);stroke:none" clip-path="url(#clip30)" />
<clipPath id="clip31"><path d="M509,255 L522,255 L522,268 L509,268 L509,255 Z" /></clipPath>
<path d="M519.5,261 C519.5,258.5147095 517.4852295,256.5 515,256.5 C512.5147095,256.5 510.4999695,258.5147095 510.5,261 C510.5,263.4852905 512.5147095,265.5 515,265.5 C517.4852295,265.5 519.5,263.48526 519.5,261 Z" style="fill:none;stroke:rgb(85,142,213)" clip-path="url(#clip31)" />
<clipPath id="clip32"><path d="M509,255 L522,255 L522,268 L509,268 L509,255 Z" /></clipPath>
<path d="M513,261 L517,261" style="fill:none;stroke:rgb(150,160,200)" clip-path="url(#clip32)" />
<clipPath id="clip33"><path d="M528,245 L579,245 L579,278 L528,278 L528,245 Z" /></clipPath>
<path d="M531,275 L575,275 Z" style="fill:none;stroke:rgb(85,142,213);stroke-width:3" clip-path="url(#clip33)" />
<clipPath id="clip34"><path d="M540,250 L567,250 L567,273 L540,273 L540,250 Z" /></clipPath>
<path d="M549.2548828,256.5742188 C548.22229,258.3769531 547.4108887,260.0453186 546.8205566,261.5793457 C546.2302246,263.1133728 545.8652344,264.4664612 545.7255859,265.6386719 L544.4306641,265.6386719 C544.5872192,264.4833984 544.9575195,263.1651917 545.5415039,261.684082 C546.1254883,260.2029724 546.90625,258.6097107 547.8837891,256.9042969 L543.0087891,256.9042969 L543.0087891,255.8061523 L549.2548828,255.8061523 Z M550.3339844,266.355957 C553.50354,265.006012 555.3486328,263.1271057 555.8691406,260.7192383 L550.4990234,260.7192383 L550.4990234,259.7543945 L556.0024414,259.7543945 C556.0405273,259.1534729 556.0595703,258.1166992 556.0595703,256.644043 L551.1972656,256.644043 L551.1972656,255.6791992 L562.1660156,255.6791992 L562.1660156,256.644043 L557.1767578,256.644043 C557.1682739,257.5284729 557.1513672,258.5652771 557.1259766,259.7543945 L562.8134766,259.7543945 L562.8134766,260.7192383 L557.2973633,260.7192383 C558.1055908,263.4021912 560.00354,265.1964417 562.9912109,266.1020508 C562.644165,266.5167542 562.3521729,266.8680115 562.1152344,267.1557617 C559.3560791,266.0428162 557.5406494,264.2041016 556.6689453,261.6396484 C556.0003052,264.0263672 554.151001,265.9200745 551.1210938,267.3208008 C550.9433594,267.0922852 550.6809692,266.7706604 550.3339844,266.355957 Z" style="fill:rgb(0,0,0);stroke:none" clip-path="url(#clip34)" />
<clipPath id="clip35"><path d="M300,278 L505,278 L505,309 L300,309 Z M302,280 L302,306 L416,306 L416,280 Z" /></clipPath>
<path d="M429,307 C431.4444275,307 435.111084,307 440,307" style="fill:none;stroke:rgb(85,142,213)" clip-path="url(#clip35)" />
<clipPath id="clip36"><path d="M299,277 L506,277 L506,310 L299,310 L299,277 Z" /></clipPath>
<path d="M416,307 L429,307" style="fill:none;stroke:rgb(85,142,213)" clip-path="url(#clip36)" />
<clipPath id="clip37"><path d="M299,277 L420,277 L420,310 L299,310 L299,277 Z" /></clipPath>
<path d="M302,307 L416,307 Z" style="fill:none;stroke:rgb(85,142,213);stroke-width:3" clip-path="url(#clip37)" />
<clipPath id="clip38"><path d="M311,282 L408,282 L408,305 L311,305 L311,282 Z" /></clipPath>
<path d="M320.3046875,290.7070313 L323.7832031,290.7070313 L323.7832031,289.4248047 L320.7998047,289.4248047 L320.7998047,288.5615234 L323.7832031,288.5615234 L323.7832031,287.2158203 L324.7480469,287.2158203 L324.7480469,288.5615234 L327.7695313,288.5615234 L327.7695313,289.4248047 L324.7480469,289.4248047 L324.7480469,290.7070313 L328.3662109,290.7070313 L328.3662109,291.5703125 C327.9768677,292.315094 327.5791016,292.9710388 327.1728516,293.5380859 C326.8427734,293.3857422 326.5380859,293.2714844 326.2587891,293.1953125 C326.6650391,292.653656 327.0205078,292.111969 327.3251953,291.5703125 L320.3046875,291.5703125 Z M320.2539063,295.6708984 L324.0751953,295.6708984 C324.2698364,294.8922424 324.3587036,293.6734924 324.3417969,292.0146484 L325.2685547,292.0146484 C325.2685547,293.6227112 325.1881409,294.8414612 325.0273438,295.6708984 L328.3789063,295.6708984 L328.3789063,296.5341797 L325.0273438,296.5341797 C326.1868286,297.3043518 327.3421021,298.1126404 328.4931641,298.9589844 L327.7822266,299.7460938 C326.7835083,298.8743591 325.6748047,298.0237732 324.4560547,297.1943359 C323.6943359,298.3876953 322.3232422,299.2636719 320.3427734,299.8222656 C320.1988831,299.5345154 320.0211487,299.2382813 319.8095703,298.9335938 C321.8916016,298.3665466 323.2034302,297.5667419 323.7451172,296.5341797 L320.2539063,296.5341797 Z M317.4101563,294.5917969 C318.3326721,294.5071716 319.1959534,294.4056091 320,294.2871094 C319.9661255,294.6510315 319.9365234,294.9388123 319.9111328,295.1503906 C318.9208984,295.2688904 317.7190552,295.4296875 316.3056641,295.6328125 L316.1025391,294.7060547 C316.6272583,294.2574768 317.2705078,293.3857422 318.0322266,292.0908203 C317.2535706,292.1416016 316.6230469,292.1881409 316.140625,292.2304688 L315.8867188,291.3925781 C316.5299377,290.5123596 317.2366333,289.1370544 318.0068359,287.2666016 L318.9716797,287.6220703 C318.2099609,289.1116638 317.5328674,290.3431091 316.9404297,291.3164063 C317.3889771,291.3164063 317.9010315,291.3079529 318.4765625,291.2910156 C318.7727661,290.7493591 319.0859375,290.1484375 319.4160156,289.4882813 L320.3046875,289.9072266 C319.2297974,291.8115234 318.2649536,293.3730469 317.4101563,294.5917969 Z M315.9755859,297.6386719 C317.3043518,297.4186096 318.6712036,297.1647034 320.0761719,296.8769531 C320.0422974,297.3339844 320.0253906,297.6471252 320.0253906,297.8164063 C318.7897034,298.0618591 317.5328674,298.3242188 316.2548828,298.6035156 Z M320.4570313,294.0205078 L320.9648438,293.4238281 C321.7942505,293.940094 322.4332581,294.3929138 322.8818359,294.7822266 L322.2978516,295.4804688 C321.9169922,295.1165466 321.3033752,294.6298828 320.4570313,294.0205078 Z M321.3457031,292.6113281 L321.8662109,292.0019531 C322.5432739,292.3828125 323.1738281,292.8102112 323.7578125,293.2841797 L323.1865234,293.9697266 C322.6448364,293.5296326 322.03125,293.0768127 321.3457031,292.6113281 Z M336.7514648,287.6982422 L341.2456055,287.6982422 L341.2456055,297.9941406 C341.245575,298.9928284 340.771637,299.4921875 339.8237305,299.4921875 C339.349762,299.4921875 338.8842468,299.4794922 338.4272461,299.4541016 C338.3933716,299.1748047 338.3425903,298.8489685 338.2749023,298.4765625 C338.8927307,298.5357971 339.3370667,298.5654297 339.6079102,298.5654297 C340.0733948,298.5654297 340.3061523,298.3326721 340.3061523,297.8671875 L340.3061523,295.2011719 L337.5893555,295.2011719 C337.4962463,297.0546875 336.9334106,298.5950623 335.9008789,299.8222656 C335.6723633,299.5852966 335.418457,299.3482971 335.1391602,299.1113281 C335.824707,298.3242188 336.2605591,297.5074768 336.4467773,296.6611328 C336.6499023,295.8486328 336.7514648,294.4352112 336.7514648,292.4208984 Z M329.3500977,295.6708984 L330.543457,295.6708984 L330.543457,289.8056641 L329.5024414,289.8056641 L329.5024414,288.9423828 L330.543457,288.9423828 L330.543457,287.3935547 L331.4829102,287.3935547 L331.4829102,288.9423828 L334.1235352,288.9423828 L334.1235352,287.3427734 L335.0629883,287.3427734 L335.0629883,288.9423828 L336.0913086,288.9423828 L336.0913086,289.8056641 L335.0629883,289.8056641 L335.0629883,295.6708984 L336.0786133,295.6708984 L336.0786133,296.5341797 L329.3500977,296.5341797 Z M337.6464844,294.3632813 L340.3061523,294.3632813 L340.3061523,291.875 L337.690918,291.875 C337.6993713,292.9667969 337.6845703,293.7962341 337.6464844,294.3632813 Z M340.3061523,288.5615234 L337.690918,288.5615234 L337.690918,291.0371094 L340.3061523,291.0371094 Z M331.4829102,295.6708984 L334.1235352,295.6708984 L334.1235352,294.2490234 L331.4829102,294.2490234 Z M331.4829102,293.4365234 L334.1235352,293.4365234 L334.1235352,292.0273438 L331.4829102,292.0273438 Z M331.4829102,291.2148438 L334.1235352,291.2148438 L334.1235352,289.8056641 L331.4829102,289.8056641 Z M331.4829102,296.7753906 L332.2573242,297.3847656 C331.4024963,298.3072815 330.6238403,299.0816956 329.9213867,299.7080078 C329.7436523,299.5048828 329.5193481,299.2806091 329.2485352,299.0351563 C330.0525513,298.3496094 330.7973633,297.596344 331.4829102,296.7753906 Z M333.1459961,297.3720703 L333.7553711,296.75 C334.3478088,297.190094 334.9064026,297.6344299 335.4311523,298.0830078 L334.7583008,298.8066406 C334.2843323,298.3326721 333.7468872,297.8544922 333.1459961,297.3720703 Z M350.0371094,292.2939453 L351.2939453,292.2939453 C350.9046021,292.6748047 350.502594,293.0345154 350.0878906,293.3730469 L354.7089844,293.3730469 L354.7089844,294.2998047 C351.9837036,297.2535706 348.3486023,299.0859375 343.8037109,299.796875 C343.6513672,299.4921875 343.4609375,299.1748047 343.2324219,298.8447266 C345.2975159,298.5484924 347.1467896,298.0449219 348.7802734,297.3339844 C348.5348206,297.0123596 348.1835938,296.6188049 347.7265625,296.1533203 L348.4882813,295.5947266 C348.9199219,296.0433044 349.3134766,296.4876404 349.6689453,296.9277344 C351.0908203,296.1998596 352.3137817,295.3111877 353.3378906,294.2617188 L348.9833984,294.2617188 C347.4938049,295.3789063 345.9238281,296.2929688 344.2734375,297.0039063 C344.1210938,296.7584534 343.9179382,296.4707031 343.6640625,296.140625 C346.0169067,295.1927185 348.1412659,293.9104919 350.0371094,292.2939453 Z M348.1201172,287.1904297 L349.4023438,287.1904297 C348.9707031,287.6559143 348.5305786,288.0917969 348.0820313,288.4980469 L354.0615234,288.4980469 L354.0615234,289.3613281 C351.1500549,291.705719 347.6165161,293.4534607 343.4609375,294.6044922 C343.2832031,294.2659607 343.0885315,293.9697266 342.8769531,293.7158203 C344.6204224,293.2587891 346.1861877,292.7382813 347.5742188,292.1542969 C347.2695313,291.8157654 346.8674927,291.4010315 346.3681641,290.9101563 L347.0791016,290.3515625 C347.5784302,290.8339844 348.0397034,291.3037109 348.4628906,291.7607422 C350.0117188,291.0582581 351.3701172,290.2669373 352.5380859,289.3867188 L347.0664063,289.3867188 C346.1861877,290.1399841 345.1409302,290.859375 343.9306641,291.5449219 C343.7444458,291.2910156 343.5117188,291.0244141 343.2324219,290.7451172 C345.1705627,289.7125549 346.7998047,288.5276794 348.1201172,287.1904297 Z M356.2133789,292.3701172 L358.4477539,292.3701172 L358.4477539,287.1904297 L359.4887695,287.1904297 L359.4887695,292.3701172 L368.4516602,292.3701172 L368.4516602,293.3603516 L362.8911133,293.3603516 C363.9490356,295.6793518 365.8914185,297.2747498 368.7182617,298.1464844 C368.430481,298.5273438 368.1723328,298.8743591 367.9438477,299.1875 C364.9011841,298.0279846 362.8572388,296.0856018 361.8120117,293.3603516 L359.4887695,293.3603516 L359.4887695,297.9560547 C360.4535828,297.5667419 361.4776917,297.1181641 362.5610352,296.6103516 C362.5610352,297.0081482 362.5779419,297.3890076 362.6118164,297.7529297 C361.6046448,298.1676331 360.639801,298.6035156 359.7172852,299.0605469 C359.3787231,299.2467346 359.0655823,299.4541016 358.777832,299.6826172 L358.0161133,298.7050781 C358.3038635,298.4765625 358.4477539,298.1676331 358.4477539,297.7783203 L358.4477539,293.3603516 L356.2133789,293.3603516 Z M360.2504883,290.8212891 C362.3494263,290.1188049 364.367981,289.0481873 366.3061523,287.609375 L366.9663086,288.4345703 C364.9858398,289.8818359 362.912262,290.9905701 360.7456055,291.7607422 C360.6101685,291.4729919 360.4451294,291.1598206 360.2504883,290.8212891 Z M369.9560547,288.3837891 L374.3359375,288.3837891 L374.3359375,298.7304688 L373.3330078,298.7304688 L373.3330078,297.6767578 L370.9589844,297.6767578 L370.9589844,298.8828125 L369.9560547,298.8828125 Z M374.7548828,289.9833984 L379.2617188,289.9833984 L379.2617188,287.1777344 L380.2773438,287.1777344 L380.2773438,289.9833984 L382.0800781,289.9833984 L382.0800781,290.9228516 L380.2773438,290.9228516 L380.2773438,297.7529297 C380.2773438,298.8870544 379.7356567,299.4541016 378.6523438,299.4541016 C378.161438,299.4541016 377.4420471,299.4414063 376.4941406,299.4160156 C376.4518127,299.1113281 376.3840942,298.7558594 376.2910156,298.3496094 C377.1796875,298.4173279 377.8736877,298.4511719 378.3730469,298.4511719 C378.9654846,298.4511719 379.2617188,298.1507263 379.2617188,297.5498047 L379.2617188,290.9228516 L374.7548828,290.9228516 Z M370.9589844,296.7373047 L373.3330078,296.7373047 L373.3330078,293.4492188 L370.9589844,293.4492188 Z M373.3330078,289.3232422 L370.9589844,289.3232422 L370.9589844,292.5351563 L373.3330078,292.5351563 Z M376.1767578,292.1416016 C376.8538208,293.3772888 377.3658752,294.3632813 377.7128906,295.0996094 C377.4928284,295.2011719 377.1542969,295.3704529 376.6972656,295.6074219 C376.3671875,294.8033752 375.893219,293.8004456 375.2753906,292.5986328 Z M386.4282227,290.5800781 L391.8110352,290.5800781 L391.8110352,296.8642578 L387.3422852,296.8642578 L387.3422852,297.6513672 L386.4282227,297.6513672 Z M387.4946289,288.9423828 L387.4946289,287.9902344 L394.8579102,287.9902344 L394.8579102,298.0449219 C394.8579102,299.1113281 394.2527466,299.6445313 393.0424805,299.6445313 C392.5515747,299.6445313 391.9083557,299.6360779 391.112793,299.6191406 C391.0789185,299.3652344 391.0112305,299.0224609 390.909668,298.5908203 C391.6121216,298.6416016 392.2807617,298.6669922 392.9155273,298.6669922 C393.550293,298.6669922 393.8676758,298.3580627 393.8676758,297.7402344 L393.8676758,288.9423828 Z M383.4956055,289.6914063 L384.4858398,289.6914063 L384.4858398,299.6445313 L383.4956055,299.6445313 Z M387.3422852,295.9628906 L390.8969727,295.9628906 L390.8969727,294.1601563 L387.3422852,294.1601563 Z M390.8969727,291.4814453 L387.3422852,291.4814453 L387.3422852,293.2587891 L390.8969727,293.2587891 Z M384.1557617,287.8251953 L384.8793945,287.1777344 C385.5226135,287.7871094 386.1192932,288.3795471 386.6694336,288.9550781 L385.8442383,289.6787109 C385.3279419,289.0693359 384.7651367,288.4515076 384.1557617,287.8251953 Z M399.5297852,295.2075195 L398.425293,295.2075195 L398.425293,294.6616211 C398.425293,294.2172852 398.5141602,293.8353577 398.6918945,293.5158691 C398.8696289,293.1963806 399.1870117,292.8588867 399.644043,292.503418 C400.0925903,292.1564026 400.413147,291.8316345 400.6057129,291.5290527 C400.7982483,291.2264709 400.8945313,290.878418 400.8945313,290.4848633 C400.8945313,290.065918 400.7453613,289.7210388 400.4470215,289.4501953 C400.1486816,289.1793518 399.7434692,289.0439453 399.2314453,289.0439453 C398.4231567,289.0439453 397.7122192,289.3507385 397.0986328,289.9643555 L397.0986328,288.6694336 C397.8095703,288.2250977 398.5797424,288.0029297 399.4091797,288.0029297 C400.234375,288.0029297 400.8913574,288.2198181 401.380127,288.6535645 C401.8688965,289.0873108 402.1132813,289.655426 402.1132813,290.3579102 C402.1132813,290.8487854 401.9990234,291.2952576 401.7705078,291.6972656 C401.5419922,292.0992737 401.1589966,292.5224609 400.621582,292.9667969 C400.1899414,293.3265076 399.9000549,293.6121521 399.7519531,293.8237305 C399.6038208,294.0353088 399.5297852,294.331543 399.5297852,294.7124023 Z M398.9711914,296.5341797 C399.1954651,296.5341797 399.3880005,296.6124573 399.5488281,296.769043 C399.7096252,296.9256287 399.7900391,297.1160583 399.7900391,297.340332 C399.7900391,297.5688477 399.7096252,297.7603455 399.5488281,297.9147949 C399.3880005,298.0692444 399.1954651,298.1464844 398.9711914,298.1464844 C398.7553711,298.1464844 398.5670471,298.0703125 398.40625,297.9179688 C398.2454224,297.765625 398.1650391,297.5730896 398.1650391,297.340332 C398.1650391,297.1118164 398.2443848,296.9203186 398.4030762,296.7658691 C398.5617371,296.6114197 398.7511292,296.5341797 398.9711914,296.5341797 Z" style="fill:rgb(0,0,0);stroke:none" clip-path="url(#clip38)" />
<clipPath id="clip39"><path d="M418,287 L431,287 L431,300 L418,300 L418,287 Z" /></clipPath>
<path d="M428.4999695,293 C428.4999695,290.5147095 426.48526,288.5 423.9999695,288.5 C421.5147095,288.5 419.4999695,290.5147095 419.5,293 C419.5,295.4852905 421.5147095,297.5 424,297.5 C426.48526,297.5 428.5,295.48526 428.4999695,293 Z" style="fill:rgb(250,250,250);stroke:none" clip-path="url(#clip39)" />
<clipPath id="clip40"><path d="M418,287 L431,287 L431,300 L418,300 L418,287 Z" /></clipPath>
<path d="M428.4999695,293 C428.4999695,290.5147095 426.48526,288.5 423.9999695,288.5 C421.5147095,288.5 419.4999695,290.5147095 419.5,293 C419.5,295.4852905 421.5147095,297.5 424,297.5 C426.48526,297.5 428.5,295.48526 428.4999695,293 Z" style="fill:none;stroke:rgb(85,142,213)" clip-path="url(#clip40)" />
<clipPath id="clip41"><path d="M418,287 L431,287 L431,300 L418,300 L418,287 Z" /></clipPath>
<path d="M422,293 L426,293" style="fill:none;stroke:rgb(150,160,200)" clip-path="url(#clip41)" />
<clipPath id="clip42"><path d="M437,277 L506,277 L506,310 L437,310 L437,277 Z" /></clipPath>
<path d="M440,307 L502,307 Z" style="fill:none;stroke:rgb(85,142,213);stroke-width:3" clip-path="url(#clip42)" />
<clipPath id="clip43"><path d="M449,282 L494,282 L494,305 L449,305 L449,282 Z" /></clipPath>
<path d="M452.2680664,292.3574219 L464.887207,292.3574219 L464.887207,293.4746094 L452.2680664,293.4746094 Z M471.3681641,291.6972656 L472.5234375,291.6972656 L472.5234375,299.5556641 L471.3681641,299.5556641 Z M472.7646484,287.3300781 L472.5742188,287.6220703 C473.9453125,289.8818359 475.8496094,291.4983826 478.2871094,292.4716797 C478.0247192,292.8863831 477.8004456,293.2672424 477.6142578,293.6142578 C475.1259766,292.3108826 473.2428284,290.6308594 471.9648438,288.5742188 C470.7122192,290.5292969 468.8121643,292.2685547 466.2646484,293.7919922 C466.0784302,293.4873047 465.8626099,293.1529846 465.6171875,292.7890625 C468.257782,291.3248596 470.221344,289.5052185 471.5078125,287.3300781 Z M482.0957031,295.2392578 C481.9052429,296.8727112 481.2683716,298.3496094 480.1850586,299.6699219 C479.9142151,299.4075623 479.6222229,299.153656 479.309082,298.9082031 C480.1300354,298.0195313 480.6801758,296.9615784 480.9594727,295.734375 C481.1541138,294.8287659 481.2514648,293.5761719 481.2514648,291.9765625 L481.2514648,287.5839844 L489.7319336,287.5839844 L489.7319336,297.4863281 C489.7319031,298.7389221 489.1352234,299.3652344 487.9418945,299.3652344 C487.4425354,299.3652344 486.7993164,299.356781 486.012207,299.3398438 C485.9698792,299.0351563 485.9064026,298.6796875 485.8217773,298.2734375 C486.6004028,298.3242188 487.2140198,298.3496094 487.6625977,298.3496094 C488.3481445,298.3496094 488.690918,298.0152893 488.690918,297.3466797 L488.690918,295.2392578 Z M482.1972656,294.3125 L488.690918,294.3125 L488.690918,291.875 L482.2924805,291.875 C482.2924805,292.721344 482.2607422,293.533844 482.1972656,294.3125 Z M482.2924805,288.5361328 L482.2924805,290.9482422 L488.690918,290.9482422 L488.690918,288.5361328 Z" style="fill:rgb(0,0,0);stroke:none" clip-path="url(#clip43)" />
<clipPath id="clip44"><path d="M300,310 L474,310 L474,341 L300,341 Z M302,312 L302,338 L403,338 L403,312 Z" /></clipPath>
<path d="M416,339 C418.4444275,339 422.111084,339 427,339" style="fill:none;stroke:rgb(85,142,213)" clip-path="url(#clip44)" />
<clipPath id="clip45"><path d="M299,309 L475,309 L475,342 L299,342 L299,309 Z" /></clipPath>
<path d="M403,339 L416,339" style="fill:none;stroke:rgb(85,142,213)" clip-path="url(#clip45)" />
<clipPath id="clip46"><path d="M299,309 L407,309 L407,342 L299,342 L299,309 Z" /></clipPath>
<path d="M302,339 L403,339 Z" style="fill:none;stroke:rgb(85,142,213);stroke-width:3" clip-path="url(#clip46)" />
<clipPath id="clip47"><path d="M311,314 L395,314 L395,337 L311,337 L311,314 Z" /></clipPath>
<path d="M317.5212402,323.0561523 L323.119873,323.0561523 L323.119873,328.0708008 L318.5241699,328.0708008 L318.5241699,328.972168 L317.5212402,328.972168 Z M316.1120605,320.2124023 L328.6550293,320.2124023 L328.6550293,321.1772461 L326.5476074,321.1772461 L326.5476074,329.7719727 C326.5476074,330.9145508 325.9932251,331.4900818 324.8845215,331.4985352 C324.0889282,331.4985352 323.3145142,331.4942932 322.5612793,331.4858398 C322.5189514,331.0965271 322.4512329,330.7114258 322.3581543,330.3305664 C323.3145142,330.3982849 324.0423889,330.4321289 324.541748,330.4321289 C325.1680298,330.4321289 325.4812012,330.0935974 325.4812012,329.4165039 L325.4812012,321.1772461 L316.1120605,321.1772461 Z M322.1169434,323.9575195 L318.5241699,323.9575195 L318.5241699,327.1694336 L322.1169434,327.1694336 Z M339.0461426,319.4760742 L340.0871582,319.4760742 L340.0871582,321.7612305 C340.0871582,324.1014099 339.7866821,325.959137 339.185791,327.3344727 C340.23526,328.4178162 341.2254944,329.4842224 342.1564941,330.5336914 L341.2805176,331.3334961 C340.4129944,330.2586365 339.5475769,329.2366638 338.6843262,328.2675781 C337.7067871,329.7529297 336.2362366,330.9145508 334.2727051,331.7524414 C334.0780334,331.4900818 333.8495178,331.1980896 333.5871582,330.8764648 C335.7199707,329.8946838 337.154541,328.7563477 337.8908691,327.4614258 C338.6779785,326.1918945 339.0630493,324.2833557 339.0461426,321.7358398 Z M335.1105957,326.5092773 C335.1359863,327.0594177 335.1698303,327.4614258 335.2121582,327.715332 C333.1809082,328.9933167 331.9155884,329.7973633 331.4162598,330.1274414 C331.1369629,330.322113 330.8703613,330.5336914 330.6164551,330.762207 L329.8928223,329.7592773 C330.2905884,329.4038086 330.48526,328.9764099 330.4768066,328.4770508 L330.4768066,319.6538086 L331.5178223,319.6538086 L331.5178223,328.730957 C332.4487915,328.1723633 333.6463928,327.4317932 335.1105957,326.5092773 Z M334.5900879,319.184082 C335.157135,320.0812073 335.7876587,321.1560974 336.4816895,322.4086914 L335.4914551,322.9672852 C334.8312988,321.6639099 334.2303772,320.5636292 333.6887207,319.6665039 Z M347.2409668,322.7006836 L350.7194824,322.7006836 L350.7194824,321.418457 L347.736084,321.418457 L347.736084,320.5551758 L350.7194824,320.5551758 L350.7194824,319.2094727 L351.6843262,319.2094727 L351.6843262,320.5551758 L354.7058105,320.5551758 L354.7058105,321.418457 L351.6843262,321.418457 L351.6843262,322.7006836 L355.3024902,322.7006836 L355.3024902,323.5639648 C354.913147,324.3087463 354.5153503,324.9646912 354.1091309,325.5317383 C353.7790222,325.3793945 353.4743347,325.2651367 353.1950684,325.1889648 C353.6012878,324.6473083 353.9567566,324.1056213 354.2614746,323.5639648 L347.2409668,323.5639648 Z M347.1901855,327.6645508 L351.0114746,327.6645508 C351.2061157,326.8858948 351.2949829,325.6671448 351.2780762,324.0083008 L352.204834,324.0083008 C352.204834,325.6163635 352.1244202,326.8351135 351.963623,327.6645508 L355.3151855,327.6645508 L355.3151855,328.527832 L351.963623,328.527832 C353.1231079,329.2980042 354.2783813,330.1062927 355.4294434,330.9526367 L354.7185059,331.7397461 C353.7197876,330.8680115 352.611084,330.0174255 351.392334,329.1879883 C350.6306152,330.3813477 349.2595215,331.2573242 347.2790527,331.815918 C347.1351624,331.5281677 346.957428,331.2319336 346.7458496,330.9272461 C348.8278809,330.360199 350.1397095,329.5603943 350.6813965,328.527832 L347.1901855,328.527832 Z M344.3464355,326.5854492 C345.2689514,326.500824 346.1322327,326.3992615 346.9362793,326.2807617 C346.9024048,326.6446838 346.8728027,326.9324646 346.8474121,327.144043 C345.8571777,327.2625427 344.6553345,327.4233398 343.2419434,327.6264648 L343.0388184,326.699707 C343.5635376,326.2511292 344.2067871,325.3793945 344.9685059,324.0844727 C344.1898499,324.1352539 343.5593262,324.1817932 343.0769043,324.2241211 L342.822998,323.3862305 C343.466217,322.506012 344.1729126,321.1307068 344.9431152,319.2602539 L345.907959,319.6157227 C345.1462402,321.1053162 344.4691467,322.3367615 343.876709,323.3100586 C344.3252563,323.3100586 344.8373108,323.3016052 345.4128418,323.284668 C345.7090454,322.7430115 346.0222168,322.1420898 346.3522949,321.4819336 L347.2409668,321.9008789 C346.1660767,323.8051758 345.2012329,325.3666992 344.3464355,326.5854492 Z M342.9118652,329.6323242 C344.2406311,329.412262 345.6074829,329.1583557 347.0124512,328.8706055 C346.9785767,329.3276367 346.9616699,329.6407776 346.9616699,329.8100586 C345.7259827,330.0555115 344.4691467,330.3178711 343.1911621,330.597168 Z M347.3933105,326.0141602 L347.901123,325.4174805 C348.7305298,325.9337463 349.3695374,326.3865662 349.8181152,326.7758789 L349.2341309,327.4741211 C348.853241,327.110199 348.2396545,326.6235352 347.3933105,326.0141602 Z M348.2819824,324.6049805 L348.8024902,323.9956055 C349.4795532,324.3764648 350.1101074,324.8038635 350.6940918,325.277832 L350.1228027,325.9633789 C349.5811157,325.5232849 348.9674988,325.0704651 348.2819824,324.6049805 Z M359.0285645,319.9077148 L365.3000488,319.9077148 L365.3000488,329.3149414 C365.3000488,329.8650818 365.5412598,330.1401367 366.0236816,330.1401367 L366.7346191,330.1401367 C367.2085571,330.1401367 367.4794006,329.8819885 367.5471191,329.3657227 C367.6317444,328.8240662 367.7079163,328.159668 367.7756348,327.3725586 C368.1057129,327.516449 368.473877,327.6518555 368.880127,327.7788086 C368.7700806,328.6166992 368.67276,329.2641602 368.5881348,329.7211914 C368.435791,330.6775818 367.8771973,331.1557617 366.9123535,331.1557617 L365.795166,331.1557617 C364.7372131,331.1557617 364.208252,330.5802307 364.208252,329.4291992 L364.208252,320.8852539 L360.1203613,320.8852539 L360.1203613,324.097168 C360.1203613,326.1114807 359.9129944,327.5756836 359.498291,328.4897461 C359.0412292,329.5307617 358.1906433,330.525238 356.9465332,331.4731445 C356.7434082,331.202301 356.4937134,330.8934021 356.1975098,330.5463867 C357.3400879,329.7000427 358.0975647,328.8367615 358.4699707,327.956543 C358.8423462,327.1694336 359.0285645,325.8829651 359.0285645,324.097168 Z M377.7858887,322.9291992 C377.7774048,323.3523865 377.7583618,323.7691956 377.7287598,324.1796875 C378.2958069,327.0615234 379.8044434,329.1879883 382.2546387,330.559082 C381.9076233,330.931488 381.6325684,331.2615662 381.4294434,331.5493164 C379.3050842,330.0555115 377.9424438,328.2167969 377.3415527,326.0332031 C376.7871704,328.3945313 375.2637329,330.2967224 372.7712402,331.7397461 C372.6019592,331.4773865 372.3692017,331.1769104 372.072998,330.8383789 C374.6712952,329.4672852 376.173584,327.5375977 376.579834,325.0493164 C376.6983032,324.4399414 376.7617798,323.7332458 376.7702637,322.9291992 Z M379.4616699,324.6049805 C379.8425293,323.9024963 380.1853027,323.1450195 380.4899902,322.3325195 L375.4943848,322.3325195 C375.1261902,323.1746521 374.7178345,323.9829102 374.2692871,324.7573242 C373.9645996,324.537262 373.6599121,324.3553162 373.3552246,324.2114258 C374.345459,322.5948792 375.0648499,320.9233398 375.5134277,319.1967773 L376.541748,319.4887695 C376.338623,320.1531677 376.1143188,320.8006287 375.8688965,321.4311523 L381.5817871,321.4311523 L381.5817871,322.3325195 C381.2347717,323.2719727 380.8539124,324.1521912 380.439209,324.9731445 C380.1514282,324.8292542 379.825592,324.706543 379.4616699,324.6049805 Z M372.2380371,324.6557617 C372.6273499,324.9519958 372.957428,325.1805115 373.2282715,325.3413086 C372.144928,327.2709961 371.2647095,328.938324 370.5876465,330.3432617 L369.5593262,329.6704102 C370.4310608,328.3500977 371.3239746,326.6785583 372.2380371,324.6557617 Z M370.7272949,319.996582 C371.4128418,320.6821289 372.1830139,321.5242615 373.0378418,322.5229492 L372.2126465,323.284668 C371.3916626,322.2013245 370.6510925,321.3253479 369.9909668,320.6567383 Z M386.3044434,327.2011719 L385.1999512,327.2011719 L385.1999512,326.6552734 C385.1999512,326.2109375 385.2888184,325.82901 385.4665527,325.5095215 C385.6442871,325.190033 385.9616699,324.8525391 386.4187012,324.4970703 C386.8672485,324.1500549 387.1878052,323.8252869 387.3803711,323.5227051 C387.5729065,323.2201233 387.6691895,322.8720703 387.6691895,322.4785156 C387.6691895,322.0595703 387.5200195,321.7146912 387.2216797,321.4438477 C386.9233398,321.1730042 386.5181274,321.0375977 386.0061035,321.0375977 C385.1978149,321.0375977 384.4868774,321.3443909 383.873291,321.9580078 L383.873291,320.6630859 C384.5842285,320.21875 385.3544006,319.996582 386.1838379,319.996582 C387.0090332,319.996582 387.6660156,320.2134705 388.1547852,320.6472168 C388.6435547,321.0809631 388.8879395,321.6490784 388.8879395,322.3515625 C388.8879395,322.8424377 388.7736816,323.2889099 388.545166,323.690918 C388.3166504,324.092926 387.9336548,324.5161133 387.3962402,324.9604492 C386.9645996,325.3201599 386.6747131,325.6058044 386.5266113,325.8173828 C386.378479,326.0289612 386.3044434,326.3251953 386.3044434,326.7060547 Z M385.7458496,328.527832 C385.9701233,328.527832 386.1626587,328.6061096 386.3234863,328.7626953 C386.4842834,328.919281 386.5646973,329.1097107 386.5646973,329.3339844 C386.5646973,329.5625 386.4842834,329.7539978 386.3234863,329.9084473 C386.1626587,330.0628967 385.9701233,330.1401367 385.7458496,330.1401367 C385.5300293,330.1401367 385.3417053,330.0639648 385.1809082,329.9116211 C385.0200806,329.7592773 384.9396973,329.5667419 384.9396973,329.3339844 C384.9396973,329.1054688 385.019043,328.9139709 385.1777344,328.7595215 C385.3363953,328.605072 385.5257874,328.527832 385.7458496,328.527832 Z" style="fill:rgb(0,0,0);stroke:none" clip-path="url(#clip47)" />
<clipPath id="clip48"><path d="M405,319 L418,319 L418,332 L405,332 L405,319 Z" /></clipPath>
<path d="M415.4999695,325 C415.4999695,322.5147095 413.48526,320.5 410.9999695,320.5 C408.5147095,320.5 406.4999695,322.5147095 406.5,325 C406.5,327.4852905 408.5147095,329.5 411,329.5 C413.48526,329.5 415.5,327.48526 415.4999695,325 Z" style="fill:rgb(250,250,250);stroke:none" clip-path="url(#clip48)" />
<clipPath id="clip49"><path d="M405,319 L418,319 L418,332 L405,332 L405,319 Z" /></clipPath>
<path d="M415.4999695,325 C415.4999695,322.5147095 413.48526,320.5 410.9999695,320.5 C408.5147095,320.5 406.4999695,322.5147095 406.5,325 C406.5,327.4852905 408.5147095,329.5 411,329.5 C413.48526,329.5 415.5,327.48526 415.4999695,325 Z" style="fill:none;stroke:rgb(85,142,213)" clip-path="url(#clip49)" />
<clipPath id="clip50"><path d="M405,319 L418,319 L418,332 L405,332 L405,319 Z" /></clipPath>
<path d="M409,325 L413,325" style="fill:none;stroke:rgb(150,160,200)" clip-path="url(#clip50)" />
<clipPath id="clip51"><path d="M424,309 L475,309 L475,342 L424,342 L424,309 Z" /></clipPath>
<path d="M427,339 L471,339 Z" style="fill:none;stroke:rgb(85,142,213);stroke-width:3" clip-path="url(#clip51)" />
<clipPath id="clip52"><path d="M436,314 L463,314 L463,337 L436,337 L436,314 Z" /></clipPath>
<path d="M443.6933594,322.7578125 C443.6933594,322.2288513 443.5261841,321.8130798 443.1918945,321.510498 C442.8575745,321.2079163 442.4026489,321.0566406 441.8271484,321.0566406 C441.4208984,321.0566406 441.0104065,321.1603088 440.5957031,321.3676758 C440.1809692,321.5750427 439.7937622,321.8712463 439.434082,322.2563477 L439.434082,321.050293 C439.7556763,320.7159729 440.1206665,320.4599609 440.5290527,320.2822266 C440.9374084,320.1044922 441.4166565,320.015625 441.9667969,320.015625 C442.8554688,320.015625 443.5706177,320.2536621 444.1123047,320.7297363 C444.6539612,321.2058105 444.9248047,321.8500977 444.9248047,322.6625977 C444.9248047,323.3862305 444.7586975,324.0125427 444.4265137,324.5415039 C444.0942993,325.0704651 443.5261841,325.6121521 442.722168,326.1665039 C441.9011841,326.733551 441.3521118,327.139801 441.0749512,327.3852539 C440.79776,327.6307068 440.6041565,327.8655701 440.4941406,328.0898438 C440.3840942,328.3141174 440.3291016,328.5870667 440.3291016,328.9086914 L445.2167969,328.9086914 L445.2167969,330.0131836 L439.0341797,330.0131836 L439.0341797,329.5244141 C439.0341797,328.9573669 439.1113892,328.4759827 439.2658691,328.0803223 C439.4203186,327.6846619 439.675293,327.2995605 440.0307617,326.9250488 C440.3862305,326.5505371 440.9405823,326.1009216 441.6938477,325.5761719 C442.4640198,325.0345154 442.9898071,324.5594788 443.2712402,324.151123 C443.5526428,323.7427673 443.6933594,323.2783203 443.6933594,322.7578125 Z M454.4970703,322.9609375 C454.4885864,323.3841248 454.4695435,323.8009338 454.4399414,324.2114258 C455.0069885,327.0932617 456.515625,329.2197266 458.9658203,330.5908203 C458.6188049,330.9632263 458.34375,331.2933044 458.140625,331.5810547 C456.0162659,330.0872498 454.6536255,328.2485352 454.0527344,326.0649414 C453.4983521,328.4262695 451.9749146,330.3284607 449.4824219,331.7714844 C449.3131409,331.5091248 449.0803833,331.2086487 448.7841797,330.8701172 C451.3824768,329.4990234 452.8847656,327.5693359 453.2910156,325.0810547 C453.4094849,324.4716797 453.4729614,323.7649841 453.4814453,322.9609375 Z M456.1728516,324.6367188 C456.5537109,323.9342346 456.8964844,323.1767578 457.2011719,322.3642578 L452.2055664,322.3642578 C451.8373718,323.2063904 451.4290161,324.0146484 450.9804688,324.7890625 C450.6757813,324.5690002 450.3710938,324.3870544 450.0664063,324.2431641 C451.0566406,322.6266174 451.7760315,320.9550781 452.2246094,319.2285156 L453.2529297,319.5205078 C453.0498047,320.184906 452.8255005,320.8323669 452.5800781,321.4628906 L458.2929688,321.4628906 L458.2929688,322.3642578 C457.9459534,323.3037109 457.565094,324.1839294 457.1503906,325.0048828 C456.8626099,324.8609924 456.5367737,324.7382813 456.1728516,324.6367188 Z M448.9492188,324.6875 C449.3385315,324.9837341 449.6686096,325.2122498 449.9394531,325.3730469 C448.8561096,327.3027344 447.9758911,328.9700623 447.2988281,330.375 L446.2705078,329.7021484 C447.1422424,328.3818359 448.0351563,326.7102966 448.9492188,324.6875 Z M447.4384766,320.0283203 C448.1240234,320.7138672 448.8941956,321.5559998 449.7490234,322.5546875 L448.9238281,323.3164063 C448.1028442,322.2330627 447.3622742,321.3570862 446.7021484,320.6884766 Z" style="fill:rgb(0,0,0);stroke:none" clip-path="url(#clip52)" />
<clipPath id="clip53"><path d="M225,14 L359,14 L359,56 L225,56 L225,14 Z" /></clipPath>
<path d="M234,15 C229.5817261,15 226,18.5817261 226,23 L226,46 C226,50.4182739 229.5817261,54 234,54 L349,54 C353.4182739,54 357,50.4182739 357,46 L357,23 C357,18.5817261 353.4182739,15 349,15 Z" style="fill:rgb(85,142,213);stroke:none" clip-path="url(#clip53)" />
<clipPath id="clip54"><path d="M237,21 L347,21 L347,49 L237,49 L237,21 Z" /></clipPath>
<path d="M246.829361,32.9663086 L246.298111,38.4946289 L244.8039703,38.4946289 L245.1360016,35.0249023 L244.0070953,35.0249023 L244.0070953,41.0678711 C244.0070953,42.3295746 243.4039001,42.999176 242.197525,43.0766602 C241.8101501,43.1098633 241.1958923,43.1264648 240.3547516,43.1264648 C240.2219391,42.4513245 240.072525,41.7374573 239.9065094,40.9848633 C240.2606659,41.0069885 240.6037598,41.0180511 240.9358063,41.0180664 C241.5445251,41.0180511 241.8488922,40.6970825 241.8488922,40.0551758 L241.8488922,35.0249023 L239.7902985,35.0249023 L239.7902985,32.9663086 L242.0813141,32.9663086 C241.3729706,32.4682617 240.7033691,32.003418 240.072525,31.5717773 L241.251236,30.0942383 C241.8378143,30.5701294 242.424408,31.0571289 243.0110016,31.5551758 L244.3723297,29.5961914 L240.0559235,29.5961914 L240.0559235,27.6040039 L246.5969391,27.6040039 L246.5969391,29.7290039 L244.3723297,32.9663086 Z M247.3938141,39.0258789 L247.3938141,31.0571289 L249.9836578,31.0571289 L250.2492828,29.6293945 L247.0617828,29.6293945 L247.0617828,27.5708008 L256.0266113,27.5708008 L256.0266113,29.6293945 L252.4904938,29.6293945 L252.1750641,31.0571289 L255.7444,31.0571289 L255.7444,39.0258789 L253.6027985,39.0258789 L253.6027985,33.1157227 L249.5354156,33.1157227 L249.5354156,39.0258789 Z M250.5315094,33.9790039 L252.6233063,33.9790039 L252.6233063,34.4604492 C252.6233063,36.1870117 252.4904938,37.5593872 252.2248688,38.5776367 C253.730072,39.6290588 255.1135254,40.6694336 256.3752441,41.6987305 L254.8147125,43.2924805 C253.8296814,42.3406525 252.6952362,41.3722229 251.4113922,40.387207 C250.7030487,41.3722229 249.4247284,42.3461914 247.5764313,43.309082 C247.1115875,42.6007385 246.6522675,41.9532776 246.1985016,41.3666992 C248.1685486,40.4923401 249.4026031,39.5571289 249.90065,38.5610352 C250.3322906,37.6977539 250.542572,36.3308716 250.5315094,34.4604492 Z M260.2683105,26.7241211 C261.1315918,27.8862305 261.8620605,28.9155273 262.4597168,29.8120117 L260.3347168,31.090332 C259.7924194,30.1163635 259.1228027,29.0317383 258.3259277,27.8364258 Z M262.8747559,31.7875977 L267.0915527,31.7875977 L267.0915527,26.7407227 L269.5817871,26.7407227 L269.5817871,31.7875977 L273.8317871,31.7875977 L273.8317871,34.012207 L269.5817871,34.012207 L269.5817871,43.1430664 L267.0915527,43.1430664 L267.0915527,34.012207 L262.8747559,34.012207 Z M263.6882324,37.3325195 C263.7767944,38.3618164 263.8708496,39.1808167 263.970459,39.7895508 C261.845459,41.1730042 260.4952087,42.1801758 259.9196777,42.8110352 L258.6911621,41.184082 C258.967865,40.8520508 259.1062012,40.387207 259.1062012,39.7895508 L259.1062012,34.4604492 L257.4128418,34.4604492 L257.4128418,32.3022461 L261.314209,32.3022461 L261.314209,38.8598633 C261.7680054,38.5942383 262.5593262,38.0851135 263.6882324,37.3325195 Z M277.177002,26.840332 C277.9849548,27.858551 278.770752,28.8989258 279.5344238,29.9614258 L277.4758301,31.3061523 C276.8339233,30.2214966 276.114502,29.1036682 275.317627,27.9526367 Z M286.2912598,39.8725586 L284.0500488,39.8725586 L284.0500488,34.0703125 C283.020752,35.5422974 281.8088379,36.8399963 280.4143066,37.9633789 C279.9107361,37.3435669 279.4237671,36.8012695 278.9533691,36.3364258 L278.9533691,39.0341797 C279.4071655,39.4547424 279.9287109,39.7770996 280.5180664,40.0012207 C281.1074219,40.2253418 281.6663513,40.3623047 282.1948242,40.4121094 C282.7233276,40.4619141 283.6848145,40.4868164 285.0793457,40.4868164 C286.828064,40.4868164 288.9198608,40.4425354 291.3547363,40.3540039 C291.0669861,41.1176605 290.7958374,41.8813477 290.5412598,42.6450195 C286.2359314,42.6616211 283.2946777,42.628418 281.7175293,42.5454102 C280.1403809,42.4624023 278.859314,41.8924103 277.8742676,40.8354492 C277.442627,41.300293 276.7730408,42.0418243 275.8654785,43.0600586 L274.8195801,40.5864258 L276.7287598,38.8515625 L276.7287598,34.6762695 L275.0686035,34.6762695 L275.0686035,32.4848633 L278.9533691,32.4848633 L278.9533691,36.0791016 C281.3163452,34.3193359 283.0014038,32.1362305 284.0085449,29.5297852 L279.9162598,29.5297852 L279.9162598,27.487793 L290.8234863,27.487793 L290.8234863,29.5297852 L286.4240723,29.5297852 C286.1307983,30.3045044 285.8015137,31.046051 285.4362793,31.7543945 L286.2912598,31.7543945 L286.2912598,32.9912109 L287.3869629,32.0864258 C288.6597595,33.2927856 290.0044861,34.6375122 291.4211426,36.1206055 L289.5617676,37.7641602 C288.2447205,36.1538086 287.154541,34.8671875 286.2912598,33.9042969 Z M293.604248,29.3637695 L297.9206543,29.3637695 L297.9206543,26.7739258 L300.3278809,26.7739258 L300.3278809,29.3637695 L304.9016113,29.3637695 C304.4312439,29.0151367 303.9414978,28.6665039 303.432373,28.3178711 L304.8601074,26.7905273 C306.2435913,27.6870117 307.5163574,28.5890198 308.6784668,29.496582 L307.1345215,31.1567383 C306.7969666,30.8634338 306.4428101,30.5673828 306.0720215,30.2685547 L305.7814941,34.4106445 L308.213623,34.4106445 C308.1361694,36.7016602 308.0503845,38.2552795 307.9562988,39.0715332 C307.8622437,39.8877563 307.5592651,40.5324707 307.0473633,41.0056152 C306.5354919,41.4787445 305.7897949,41.7153168 304.8103027,41.715332 C303.7699585,41.7153168 302.9952087,41.6987152 302.486084,41.6655273 C302.3975525,40.990387 302.2315369,40.1990356 301.9880371,39.2915039 C302.7074585,39.3911133 303.432373,39.440918 304.1628418,39.440918 C304.6000366,39.440918 304.9389648,39.3468323 305.1796875,39.1586914 C305.4204102,38.97052 305.5670776,38.704895 305.6196289,38.3618164 C305.6722107,38.0187073 305.7123413,37.3878479 305.7399902,36.4692383 L300.3278809,36.4692383 L300.3278809,43.0932617 L297.9206543,43.0932617 L297.9206543,36.4692383 L292.4421387,36.4692383 L292.4421387,34.4106445 L297.9206543,34.4106445 L297.9206543,31.3891602 L293.604248,31.3891602 Z M303.6315918,31.3891602 L300.3278809,31.3891602 L300.3278809,34.4106445 L303.4157715,34.4106445 Z M317.6848145,29.6293945 L322.598877,29.6293945 L322.598877,26.840332 L324.9729004,26.840332 L324.9729004,29.6293945 L326.3674316,29.6293945 L326.3674316,31.8374023 L324.9729004,31.8374023 L324.9729004,40.0551758 C324.9729004,40.9848328 324.7653809,41.6876526 324.3503418,42.1635742 C323.9353027,42.6394806 323.3611755,42.8912659 322.6279297,42.9189453 C321.8947144,42.9466095 320.8059082,42.960434 319.3615723,42.9604492 C319.1845093,41.9532776 318.9963379,41.14534 318.7971191,40.5366211 C320.3687439,40.5808716 321.2320251,40.6030273 321.3869629,40.6030273 C322.1949158,40.6030273 322.598877,40.1824341 322.598877,39.3413086 L322.598877,31.8374023 L317.6848145,31.8374023 Z M310.6623535,42.2133789 L310.6623535,27.8862305 L317.2033691,27.8862305 L317.2033691,42.1137695 L315.0119629,42.1137695 L315.0119629,40.9682617 L312.8537598,40.9682617 L312.8537598,42.2133789 Z M315.0119629,30.0776367 L312.8537598,30.0776367 L312.8537598,33.3647461 L315.0119629,33.3647461 Z M312.8537598,38.7768555 L315.0119629,38.7768555 L315.0119629,35.4897461 L312.8537598,35.4897461 Z M319.145752,32.7338867 C319.8983765,33.6746216 320.8944702,35.0138245 322.1340332,36.7514648 L320.1252441,38.0629883 C319.118103,36.3917542 318.2160645,34.9972229 317.4191895,33.8793945 Z M330.0114746,27.4545898 L332.1862793,26.690918 C332.7064819,27.5099182 333.2377014,28.4064026 333.7800293,29.3803711 L331.4724121,30.2602539 C330.9743652,29.2088013 330.4873962,28.2735901 330.0114746,27.4545898 Z M343.2097168,39.972168 C343.2097168,40.7745667 343.075531,41.4165039 342.8071289,41.8979492 C342.5387268,42.3793945 342.1112366,42.6961975 341.5246582,42.8483887 C340.9380798,43.0005646 339.6348572,43.0766602 337.6149902,43.0766602 C337.4821777,42.2576447 337.3050842,41.4829102 337.0837402,40.7524414 C337.7920837,40.7966919 338.6940918,40.8188477 339.7897949,40.8188477 C340.5313416,40.8188477 340.9020996,40.4923401 340.9020996,39.8393555 L340.9020996,29.5297852 L334.3444824,29.5297852 L334.3444824,27.487793 L343.2097168,27.487793 Z M328.0358887,28.8823242 L330.3435059,28.8823242 L330.3435059,43.0268555 L328.0358887,43.0268555 Z M331.8708496,30.8745117 L339.291748,30.8745117 L339.291748,39.6069336 L333.9626465,39.6069336 L333.9626465,40.5200195 L331.8708496,40.5200195 Z M337.1999512,32.7338867 L333.9626465,32.7338867 L333.9626465,34.3110352 L337.1999512,34.3110352 Z M337.1999512,37.7475586 L337.1999512,36.1704102 L333.9626465,36.1704102 L333.9626465,37.7475586 Z" style="fill:rgb(255,255,255);stroke:none" clip-path="url(#clip54)" />
<clipPath id="clip55"><path d="M234,50 L278,50 L278,169 L234,169 L234,50 Z" /></clipPath>
<path d="M238.3063049,165 C267,130 246,87 274.6000061,54" style="fill:none;stroke:rgb(119,147,60);stroke-width:3;stroke-dasharray:18,9;stroke-dashoffset:0" clip-path="url(#clip55)" />
<clipPath id="clip56"><path d="M234,50 L278,50 L278,169 L234,169 L234,50 Z" /></clipPath>
<path d="M272.7065735,63.8191071 L274.6000061,54 L265.1496887,57.2698059 Z" style="fill:rgb(119,147,60);stroke:none" clip-path="url(#clip56)" />
<clipPath id="clip57"><path d="M234,50 L278,50 L278,169 L234,169 L234,50 Z" /></clipPath>
<path d="M272.7065735,63.8191071 L274.6000061,54 L265.1496887,57.2698059 Z" style="fill:none;stroke:rgb(119,147,60);stroke-width:3" clip-path="url(#clip57)" />
</svg>
